<?xml version="1.0" standalone="no"?>
<!DOCTYPE svg PUBLIC "-//W3C//DTD SVG 20010904//EN"
 "http://www.w3.org/TR/2001/REC-SVG-20010904/DTD/svg10.dtd">
<svg version="1.0" xmlns="http://www.w3.org/2000/svg"
 width="808.000000pt" height="808.000000pt" viewBox="0 0 808.000000 808.000000"
 preserveAspectRatio="xMidYMid meet">
<metadata>
Created by potrace 1.14, written by Peter Selinger 2001-2017
</metadata>
<g transform="translate(0.000000,808.000000) scale(0.100000,-0.100000)"
fill="#000000" stroke="none">
<path d="M2417 7118 c7 -24 17 -50 20 -58 3 -8 7 -17 8 -20 7 -23 29 -97 31
-105 1 -5 19 -64 39 -130 20 -66 39 -127 40 -135 2 -8 27 -96 55 -195 28 -99
53 -191 55 -205 2 -14 15 -68 29 -120 15 -52 29 -111 32 -130 3 -19 14 -66 23
-105 10 -38 15 -71 11 -73 -4 -1 1 -37 10 -80 24 -105 32 -162 23 -163 -5 0
-37 -2 -73 -4 -58 -3 -103 -8 -180 -20 -14 -2 -43 -7 -65 -9 -22 -3 -51 -8
-65 -11 -13 -2 -42 -7 -64 -11 -22 -3 -44 -8 -49 -11 -4 -3 -18 -6 -30 -8 -46
-5 -263 -60 -542 -137 -418 -114 -553 -148 -655 -164 -19 -3 -53 -8 -75 -12
-64 -10 -236 -7 -281 6 -63 18 -121 74 -130 125 -11 60 -3 151 16 187 4 8 8
18 9 23 0 4 9 28 21 53 11 26 20 48 20 51 0 2 23 38 51 81 59 90 157 187 196
195 16 3 29 5 29 4 1 -1 4 -40 7 -87 7 -100 13 -136 35 -210 9 -30 16 -57 17
-60 3 -14 68 -137 78 -147 9 -10 12 27 12 160 0 152 7 280 19 342 2 11 7 42
10 68 4 27 10 59 12 70 3 12 7 33 9 47 2 14 15 72 30 130 14 58 28 112 30 120
10 42 57 185 84 260 18 47 33 90 35 95 2 6 10 27 20 47 9 21 16 42 16 48 0 5
5 10 11 10 5 0 7 5 4 10 -4 7 -15 2 -27 -12 -78 -90 -114 -132 -127 -151 -8
-12 -24 -31 -34 -42 -71 -78 -215 -327 -262 -455 -1 -3 -5 -17 -9 -32 -5 -16
-11 -28 -16 -28 -4 0 -16 -8 -28 -18 -11 -10 -33 -27 -47 -38 -15 -10 -44 -35
-65 -54 -21 -19 -46 -42 -57 -51 -26 -22 -126 -137 -137 -157 -5 -9 -17 -24
-25 -34 -9 -9 -25 -34 -36 -55 -11 -21 -23 -40 -26 -43 -22 -17 -127 -272
-144 -349 -3 -12 -7 -31 -10 -43 -3 -13 -7 -34 -10 -48 -3 -14 -7 -34 -9 -45
-36 -187 -40 -548 -6 -699 5 -23 11 -54 14 -69 8 -43 39 -138 82 -252 4 -11 8
-22 8 -25 9 -34 151 -299 197 -367 16 -23 29 -46 29 -51 0 -6 4 -12 8 -14 5
-1 32 -37 60 -79 28 -42 57 -83 64 -90 7 -8 42 -50 77 -94 58 -74 158 -189
206 -239 11 -12 40 -43 65 -69 l44 -48 -26 -22 c-95 -82 -164 -159 -229 -252
-18 -27 -36 -52 -39 -55 -3 -3 -14 -21 -24 -40 -11 -19 -22 -37 -25 -40 -3 -3
-16 -25 -29 -50 -13 -25 -38 -72 -55 -105 -18 -33 -33 -63 -35 -67 -1 -4 -12
-29 -24 -55 -12 -27 -22 -50 -23 -53 -1 -3 -6 -16 -12 -30 -32 -73 -71 -180
-66 -180 3 0 1 -6 -4 -12 -9 -11 -52 -130 -59 -163 -1 -5 -17 -57 -34 -114
-17 -57 -33 -111 -35 -120 -2 -9 -10 -43 -20 -76 -9 -33 -18 -71 -21 -85 -6
-39 -10 -54 -17 -75 -3 -11 -8 -31 -11 -45 -3 -14 -8 -38 -11 -55 -4 -16 -8
-39 -10 -50 -2 -11 -9 -47 -15 -80 -7 -33 -14 -69 -15 -80 -2 -11 -6 -31 -9
-45 -6 -33 -16 -94 -22 -150 -3 -24 -8 -48 -10 -52 -3 -4 -1 -8 3 -8 5 0 25
21 46 48 135 175 436 479 623 629 105 84 167 131 219 168 32 22 77 55 101 73
24 17 48 32 53 32 4 0 19 8 32 18 25 20 71 46 203 119 69 37 301 141 330 148
6 1 25 7 41 14 17 7 43 15 58 18 15 3 45 11 65 18 36 13 37 13 96 -38 87 -77
248 -207 269 -219 10 -5 26 -17 36 -26 10 -9 31 -26 46 -37 16 -11 48 -35 72
-52 24 -18 46 -33 49 -33 3 0 23 -13 44 -30 21 -16 42 -30 48 -30 6 0 12 -4
14 -9 2 -5 24 -22 50 -37 187 -115 303 -183 368 -217 41 -22 85 -46 97 -53 12
-8 29 -14 38 -14 8 0 15 -4 15 -8 0 -8 112 -61 127 -61 3 1 9 -3 12 -8 6 -9
29 -19 236 -105 116 -48 244 -96 275 -103 8 -2 16 -4 18 -5 1 -2 5 -3 10 -4 4
-1 34 -10 67 -20 33 -10 65 -19 70 -21 6 -1 17 -5 25 -8 14 -5 72 -19 77 -18
2 0 24 -6 50 -14 27 -7 62 -16 78 -19 17 -3 71 -12 120 -21 50 -10 104 -18
120 -20 227 -20 316 -22 442 -10 188 17 423 86 487 143 10 10 19 16 20 14 0
-2 9 0 19 4 17 6 18 15 12 88 -8 116 -13 167 -19 196 -2 14 -7 48 -11 75 -15
104 -20 131 -29 165 -3 14 -8 36 -11 50 -12 63 -26 118 -50 200 -31 110 -33
103 42 159 37 28 76 57 87 65 17 13 24 12 68 -10 27 -14 47 -28 44 -32 -2 -4
-7 -31 -11 -61 -4 -30 -9 -63 -11 -75 -2 -12 -7 -41 -10 -66 -3 -25 -9 -61
-13 -81 -5 -21 -5 -43 0 -50 6 -10 9 -11 9 -1 0 6 5 12 10 12 6 0 20 9 32 20
12 10 25 17 30 14 4 -3 8 -1 8 4 0 5 15 17 33 26 40 21 70 39 77 47 3 4 36 25
74 49 l69 42 56 -17 c109 -34 266 -21 413 35 32 12 59 20 62 18 2 -2 13 6 25
16 12 11 21 16 21 12 0 -4 44 17 98 45 53 29 112 59 130 68 17 8 32 19 32 23
0 4 7 8 15 8 8 0 15 5 15 10 0 6 5 10 11 10 10 0 146 91 200 134 15 12 39 30
54 41 16 11 33 25 39 30 6 6 38 32 71 60 70 57 169 151 229 214 22 24 50 53
61 65 11 12 38 44 60 71 22 28 42 52 46 55 12 12 69 102 69 111 0 5 4 9 8 9 5
0 19 24 31 52 80 183 71 253 -57 441 -30 44 -63 91 -75 105 -37 46 -309 315
-361 357 -27 22 -54 45 -60 51 -12 12 -181 143 -232 181 -122 90 -179 129
-321 222 -88 58 -174 113 -190 122 -15 9 -71 42 -123 74 -52 31 -104 61 -115
66 -11 5 -36 19 -55 31 -40 24 -448 231 -530 268 -30 14 -58 24 -61 23 -4 -1
-13 4 -19 12 -7 8 -17 15 -22 15 -9 0 -97 36 -183 75 -34 15 -87 38 -95 40
-19 5 -60 19 -85 30 -47 20 -132 51 -240 89 -55 19 -108 37 -119 42 -10 4 -26
23 -35 43 -34 75 -228 386 -287 461 -64 80 -185 231 -204 255 -68 81 -340 342
-419 402 -12 10 -33 27 -45 38 -12 11 -37 31 -56 45 -19 13 -39 28 -45 32 -52
43 -367 248 -382 248 -3 0 -28 13 -54 30 -27 16 -49 28 -49 25 0 -2 -23 9 -50
25 -28 17 -53 30 -55 30 -3 0 -28 11 -57 24 -124 58 -388 159 -388 149 0 -3
-6 -1 -12 4 -7 6 -26 14 -43 18 -16 5 -34 9 -40 11 -53 16 -121 34 -126 34 -4
0 0 -19 8 -42z m2928 -4872 c-2 -12 -4 -32 -4 -45 -1 -21 -15 -23 -17 -3 0 4
-8 24 -17 46 -24 53 -21 60 13 40 21 -13 28 -24 25 -38z"/>
</g>
</svg>
