<svg width="101" height="100" viewBox="0 0 101 100" fill="none" xmlns="http://www.w3.org/2000/svg">
<g clip-path="url(#clip0_26_10)">
<path d="M82.0331 56.2297C101.077 55.6813 101.372 84.1797 98.0987 83.2578C87.8753 80.375 78.5581 56.3297 82.0331 56.2297ZM46.2065 45.2156C28.7393 20.1219 55.5534 8.84687 57.5847 13.5422C63.9503 28.2359 49.3909 49.7922 46.2065 45.2156Z" fill="#25333A"/>
<path d="M82.0331 56.2109C101.077 56.7656 101.372 28.2719 98.0987 29.1922C87.8753 32.0703 78.5581 56.1156 82.0331 56.2109Z" fill="#25333A"/>
<path d="M36.8831 83.2812C23.3143 83.2812 12.3331 70.6094 12.3331 54.9531C12.3331 39.2969 23.3174 26.625 36.8831 26.625C50.4253 26.625 83.8518 39.3016 83.8518 54.9531C83.8518 70.6094 50.4206 83.2812 36.8831 83.2812Z" fill="#62818E"/>
<path d="M17.3925 72.1406C21.8768 78.9031 28.9221 83.275 36.8768 83.275C50.2503 83.275 82.9878 70.9172 83.8143 55.5328C64.7893 69.9703 40.8956 76.7953 17.394 72.1406" fill="#587178"/>
<path d="M32.694 83.2812C42.1159 83.2812 49.7503 70.6094 49.7503 54.9531C49.7503 39.2969 42.119 26.625 32.694 26.625C23.2722 26.625 0.050293 39.3016 0.050293 54.9531C0.050293 70.6094 23.2769 83.2812 32.694 83.2812Z" fill="#7093A4"/>
<path d="M48.0924 47.5594C48.0924 56.1516 43.4503 63.1047 37.7159 63.1047C31.9831 63.1047 27.3331 56.15 27.3331 47.5594C27.3331 38.9703 31.9831 32.0203 37.7159 32.0203C43.4503 32.0203 48.0924 38.9703 48.0924 47.5594Z" fill="white"/>
<path d="M44.4331 47.5594C44.4331 52.0594 41.4253 55.7062 37.7159 55.7062C34.0065 55.7062 30.9987 52.0609 30.9987 47.5594C30.9987 43.0656 34.0081 39.4187 37.7159 39.4187C41.4253 39.4187 44.4331 43.0656 44.4331 47.5594Z" fill="#25333A"/>
<path d="M21.0878 45.1281C21.0878 52.375 17.1706 58.2422 12.3315 58.2422C7.49403 58.2422 3.57684 52.3766 3.57684 45.1281C3.57684 37.8859 7.49403 32.0203 12.3315 32.0203C17.1706 32.0203 21.0878 37.8859 21.0878 45.1281Z" fill="white"/>
<path d="M17.9971 45.1281C17.9971 48.9187 15.4612 51.9969 12.3331 51.9969C9.20807 51.9969 6.66901 48.9187 6.66901 45.1281C6.66901 41.3297 9.20494 38.2594 12.3331 38.2594C15.4581 38.2594 17.9971 41.3297 17.9971 45.1281ZM39.4393 73.0203C36.6003 72.4594 33.5409 72.1937 30.0909 72.1937C26.8174 72.1937 23.569 72.4266 20.5284 72.6672C19.469 72.7562 17.9549 73.5328 17.9924 74.5672C18.0049 74.8422 18.0674 75.7969 19.9737 75.6328C23.0143 75.3937 26.1487 75.1422 29.2143 75.1422C32.1034 75.1422 34.6456 75.3703 36.9924 75.8266L37.3331 75.8578C37.6487 75.8578 40.4362 75.4953 40.569 74.1844C40.5878 73.9609 40.569 73.2391 39.4393 73.0203Z" fill="#25333A"/>
</g>
<defs>
<clipPath id="clip0_26_10">
<rect width="100" height="100" fill="white" transform="translate(0.0330811)"/>
</clipPath>
</defs>
</svg>
