<svg width="101" height="100" viewBox="0 0 101 100" fill="none" xmlns="http://www.w3.org/2000/svg">
<g clip-path="url(#clip0_27_22)">
<path d="M99.6112 57.9375C99.205 56.5156 98.4471 55.3516 97.7596 54.2813C97.3221 53.6172 96.8378 52.8516 96.5643 52.1094C96.2675 51.2656 95.869 50.5234 95.4862 49.8125C95.1268 49.1484 94.7909 48.5313 94.6268 47.9531C94.3221 46.9297 94.5018 45.6563 94.705 44.3125C94.7675 43.9141 94.8221 43.5234 94.869 43.1328C95.0643 41.5547 95.3534 39.9922 95.7362 38.4844C95.7909 38.2969 95.8768 38.0078 95.9862 37.6484C97.2362 33.5859 97.619 31.5391 96.5721 30.1328C96.0878 29.4688 95.3221 29.0938 94.494 29.0938C93.3065 29.0938 92.2831 29.8828 91.5175 30.5703C90.8378 31.1797 90.3221 31.8828 89.869 32.5078L89.5096 33.0078C88.7753 33.9844 88.0331 34.9453 87.2831 35.9062C86.2909 37.1953 85.2909 38.4922 84.3065 39.8125C84.0721 40.1172 83.8378 40.4844 83.5721 40.875C83.1815 41.4844 82.2518 42.9063 81.7518 43.0234C81.455 43.0234 80.8768 42.7422 80.4081 42.5156L80.0565 42.3516C77.3612 41.0703 74.4471 39.7109 71.4159 38.4531C70.705 36.9922 69.6112 35.6797 68.83 34.2734C67.8221 32.4453 66.8378 29.0234 64.1971 29.6172C62.2753 30.0547 60.3221 32.4219 58.9315 33.7109C58.744 33.8828 58.5721 34.0391 58.4237 34.1875C52.6581 32.6172 46.9003 31.3906 40.9784 31.0703C40.5253 29.6563 40.5878 28 40.7284 26.4844C40.8925 24.7188 41.33 22.3828 38.7362 23.1641C37.0409 23.6719 35.5409 25.1562 34.1503 26.2109C31.9784 27.8672 30.1659 29.8281 28.4237 31.9219C26.5956 32.2813 24.8065 32.7266 23.0878 33.2969C17.0096 35.3125 11.6971 38.6016 7.29089 43.0859C6.00183 44.4063 4.79871 45.8203 3.71277 47.2734C3.14246 48.0312 2.58777 48.8203 2.06433 49.6563L1.72839 50.1641C1.28308 50.8359 0.78308 51.5937 0.447143 52.5859C-0.224732 54.5703 1.00964 55.8984 1.59558 56.5391L1.93933 56.8516C1.94714 57.0312 1.93933 57.1641 1.93152 57.2813C1.90027 58 1.91589 58.7344 2.63464 59.8437C4.86121 63.2578 8.75964 65.375 11.6112 66.9219L12.1893 67.2422C15.3456 68.9688 18.7362 70.2812 22.5409 71.2812C24.619 71.8203 26.6971 72.2656 28.7596 72.625C29.3768 73.1094 29.9784 73.5156 30.1268 73.6094C32.5018 75.2031 35.5409 76.9375 38.494 76.9375C40.7753 76.9375 38.9784 74.6484 38.3456 73.8125C38.2909 73.7422 38.244 73.6641 38.1815 73.5859C38.9315 73.6094 39.705 73.6719 40.4315 73.6719C42.2128 73.6719 43.9706 73.5938 45.6737 73.4453C50.5487 73.0156 55.619 71.7734 60.744 69.7578C60.8768 69.7031 61.0018 69.6484 61.1268 69.5938C61.33 69.625 61.5331 69.6563 61.6659 69.6797C63.4081 69.9922 65.1971 70.7031 66.9862 70.5781C69.4706 70.3984 69.5175 69.1562 70.3534 67.1797C70.7518 66.2734 70.994 65.3359 71.369 64.4297C71.4159 64.3203 71.4706 64.1875 71.5253 64.0703C73.8065 62.5625 76.1034 60.8594 78.4393 58.9297C79.2284 58.2891 80.08 57.7188 80.9862 57.1172C81.9003 56.5 82.8534 55.8672 83.9237 55.0859C84.7987 55.0859 86.4315 56.2812 87.2128 56.8516L88.0956 57.4922C89.6503 58.625 91.2596 59.7969 93.0721 60.7266C93.8925 61.1484 95.455 61.8594 96.7753 61.8594C98.119 61.8594 98.8378 61.1641 99.1503 60.7578C99.6112 60.25 100.002 59.3281 99.6112 57.9375Z" fill="#006CA2"/>
<path d="M78.6815 53.5781C77.7206 54.2109 76.744 54.8672 75.7909 55.6484C70.0956 60.3281 64.6815 63.6563 59.2362 65.7969C54.494 67.6641 49.8221 68.8125 45.3456 69.2031C42.4315 69.4688 39.3534 69.4844 36.1893 69.2656C32.5721 69.0078 28.8612 68.4141 25.1268 67.5234C25.6034 66.4688 25.994 65.3672 26.2909 64.25C26.6503 62.9141 26.7753 61.1719 26.6503 59.6563C27.205 59.8438 27.744 60.0156 28.2987 60.2188C30.0487 60.8672 31.83 61.2891 33.6034 61.3047C34.9315 61.3047 35.8846 60.0547 36.9237 58.8672C38.0565 57.5625 39.2518 56.2813 39.4862 53.6094C39.5487 52.9766 39.7596 52.0937 39.4706 51.6328C39.1346 51.0781 38.369 51.1719 37.9471 51.0547C37.3846 50.9141 36.8378 50.8516 36.2909 50.7812C34.6971 50.5781 33.2128 50.6953 31.6425 51.0391C29.8612 51.4219 28.0409 51.9453 26.3143 52.7969C26.0878 52.9063 25.869 53.0469 25.6425 53.1797C25.2987 51.6953 24.7362 50.25 24.205 48.8281C23.7909 47.7188 23.5175 46.6016 22.5409 45.8203C22.0175 45.3984 20.6815 45.0156 20.4315 45.9297C20.33 46.3125 20.5643 46.8672 20.8456 47.3906C21.0721 47.8125 21.3143 48.2109 21.4159 48.5C22.1346 50.5938 22.4706 52.7969 22.7987 54.9688C23.1971 57.5547 23.2987 59.7344 23.119 62.3594C23.0331 63.6016 22.6893 64.7969 22.2675 65.8437C22.1503 66.125 22.0175 66.3984 21.869 66.6641C19.119 65.8281 16.6112 64.8047 14.2675 63.5234L13.6815 63.2031C11.1346 61.8203 7.96277 60.0938 6.22839 57.5078C6.24402 57.3047 6.25183 57.0625 6.23621 56.7578C6.79089 55.9375 8.19714 56.2422 8.95496 56.5078C9.93152 56.8516 10.8612 57.5078 11.8925 57.4141C12.8846 57.3281 13.2518 56.3281 12.7128 55.5313C12.1971 54.75 10.9393 54.3828 10.1346 53.9844C9.21277 53.5234 8.11902 53.3203 7.12683 53.0391C6.50183 52.8594 5.84558 52.7891 5.18933 52.7734C5.23621 52.7031 5.26746 52.6406 5.31433 52.5703C5.44714 52.3672 5.58777 52.1641 5.70496 51.9609C6.15808 51.2344 6.65808 50.5391 7.15027 49.8672C8.12683 48.5625 9.19714 47.3047 10.3612 46.1172C11.2909 45.1719 12.2753 44.2813 13.2909 43.4609C13.9628 42.9609 15.6112 42.0312 18.08 42.4922C20.6971 42.9844 22.244 44.2422 26.8534 43.5156C31.4706 42.7891 32.0096 40.625 36.5096 40.625C41.0096 40.625 42.5878 44.1406 48.0956 44.4063C53.0018 44.6328 53.4471 41.7109 58.1581 42.4141C62.869 43.1094 63.3143 47.6484 69.6659 47.6484C76.0175 47.6484 76.9159 45.3828 83.5565 50.2187C83.5331 50.4375 83.4784 50.6641 83.4159 50.8984C82.5722 51 81.7909 51.3125 81.1346 51.8438C80.3846 52.4375 79.5565 52.9922 78.6815 53.5781" fill="#40C0E7"/>
<mask id="mask0_27_22" style="mask-type:luminance" maskUnits="userSpaceOnUse" x="5" y="40" width="79" height="30">
<path d="M78.6815 53.5781C77.7206 54.2109 76.744 54.8672 75.7909 55.6484C70.0956 60.3281 64.6815 63.6563 59.2362 65.7969C54.494 67.6641 49.8221 68.8125 45.3456 69.2031C42.4315 69.4688 39.3534 69.4844 36.1893 69.2656C32.5721 69.0078 28.8612 68.4141 25.1268 67.5234C25.6034 66.4688 25.994 65.3672 26.2909 64.25C26.6503 62.9141 26.7753 61.1719 26.6503 59.6563C27.205 59.8438 27.744 60.0156 28.2987 60.2188C30.0487 60.8672 31.83 61.2891 33.6034 61.3047C34.9315 61.3047 35.8846 60.0547 36.9237 58.8672C38.0565 57.5625 39.2518 56.2813 39.4862 53.6094C39.5487 52.9766 39.7596 52.0937 39.4706 51.6328C39.1346 51.0781 38.369 51.1719 37.9471 51.0547C37.3846 50.9141 36.8378 50.8516 36.2909 50.7812C34.6971 50.5781 33.2128 50.6953 31.6425 51.0391C29.8612 51.4219 28.0409 51.9453 26.3143 52.7969C26.0878 52.9063 25.869 53.0469 25.6425 53.1797C25.2987 51.6953 24.7362 50.25 24.205 48.8281C23.7909 47.7188 23.5175 46.6016 22.5409 45.8203C22.0175 45.3984 20.6815 45.0156 20.4315 45.9297C20.33 46.3125 20.5643 46.8672 20.8456 47.3906C21.0721 47.8125 21.3143 48.2109 21.4159 48.5C22.1346 50.5938 22.4706 52.7969 22.7987 54.9688C23.1971 57.5547 23.2987 59.7344 23.119 62.3594C23.0331 63.6016 22.6893 64.7969 22.2675 65.8437C22.1503 66.125 22.0175 66.3984 21.869 66.6641C19.119 65.8281 16.6112 64.8047 14.2675 63.5234L13.6815 63.2031C11.1346 61.8203 7.96277 60.0938 6.22839 57.5078C6.24402 57.3047 6.25183 57.0625 6.23621 56.7578C6.79089 55.9375 8.19714 56.2422 8.95496 56.5078C9.93152 56.8516 10.8612 57.5078 11.8925 57.4141C12.8846 57.3281 13.2518 56.3281 12.7128 55.5313C12.1971 54.75 10.9393 54.3828 10.1346 53.9844C9.21277 53.5234 8.11902 53.3203 7.12683 53.0391C6.50183 52.8594 5.84558 52.7891 5.18933 52.7734C5.23621 52.7031 5.26746 52.6406 5.31433 52.5703C5.44714 52.3672 5.58777 52.1641 5.70496 51.9609C6.15808 51.2344 6.65808 50.5391 7.15027 49.8672C8.12683 48.5625 9.19714 47.3047 10.3612 46.1172C11.2909 45.1719 12.2753 44.2813 13.2909 43.4609C13.9628 42.9609 15.6112 42.0312 18.08 42.4922C20.6971 42.9844 22.244 44.2422 26.8534 43.5156C31.4706 42.7891 32.0096 40.625 36.5096 40.625C41.0096 40.625 42.5878 44.1406 48.0956 44.4063C53.0018 44.6328 53.4471 41.7109 58.1581 42.4141C62.869 43.1094 63.3143 47.6484 69.6659 47.6484C76.0175 47.6484 76.9159 45.3828 83.5565 50.2187C83.5331 50.4375 83.4784 50.6641 83.4159 50.8984C82.5722 51 81.7909 51.3125 81.1346 51.8438C80.3846 52.4375 79.5565 52.9922 78.6815 53.5781" fill="white"/>
</mask>
<g mask="url(#mask0_27_22)">
<path d="M4.18933 54.3359C4.18933 54.3359 18.9315 59.1328 44.9706 58.5859C67.0018 58.125 87.3925 48.3281 87.3925 48.3281L86.6659 52.3359L82.494 53.4922C82.494 53.4922 65.4081 70.8672 45.5487 71.3437C38.4628 71.5078 28.1971 70.7188 21.8534 68.7266C10.3925 65.1016 4.80652 59.1484 4.80652 59.1484L4.18933 54.3359Z" fill="white"/>
</g>
<path d="M13.5487 47.625C12.1034 47.7031 10.9706 49.0938 11.0487 50.7109C11.1269 52.3359 12.3612 53.5781 13.8065 53.5C15.2675 53.4141 16.4003 52.0391 16.3222 50.4141C16.2362 48.7969 15.0019 47.5391 13.5487 47.625Z" fill="#2F2F2F"/>
</g>
<defs>
<clipPath id="clip0_27_22">
<rect width="100" height="100" fill="white" transform="translate(0.0330811)"/>
</clipPath>
</defs>
</svg>
