<svg width="100" height="100" viewBox="0 0 100 100" fill="none" xmlns="http://www.w3.org/2000/svg">
<path d="M71.4525 30.8189C63.7054 23.0719 55.2951 20.684 46.6668 19.9475C32.3054 18.7232 25.656 22.8273 22.7144 28.7938C19.7713 34.76 25.4494 43.2309 25.4494 43.2309" fill="#597B91"/>
<path d="M66.5145 68.4996C61.4954 72.5459 59.8918 80.2689 64.0688 80.2689C68.2459 80.2689 74.1096 70.5908 75.9719 65.4018M35.0266 52.5463C42.5995 48.9779 51.4499 51.8408 54.7948 58.9414C58.1413 66.0406 54.7147 74.6898 47.142 78.257C39.5692 81.8254 30.719 78.9625 27.3739 71.8619C24.0274 64.7629 27.454 56.1148 35.0266 52.5463ZM29.5149 47.2949C29.5149 47.2949 23.8368 37.8908 26.7799 31.2652C29.7215 24.6398 36.3709 20.0832 50.7323 21.4422C59.3606 22.2602 67.7709 24.9109 75.518 33.5139" fill="#00B89C"/>
<path d="M5.25312 41.4879C5.95586 40.743 7.04101 40.5039 7.98398 40.8988L14.4941 43.624V43.6236L16.3619 44.4055L16.3621 44.4051C20.3707 46.0834 20.2609 43.6363 22.7375 40.7102L22.7404 40.707C28.4477 32.7543 40.1178 27.3039 53.5881 27.3039C66.3578 27.3039 77.509 32.2023 83.4963 39.4873C88.2146 44.0852 93.2732 47.2938 96.4531 48.5658C97.8922 49.1422 98.8281 50.5406 98.8281 52.0895C98.8282 52.7504 98.6407 53.3977 98.2874 53.9563C97.9341 54.5149 97.4296 54.9617 96.8324 55.2449C93.8111 56.6768 87.958 59.7658 83.4732 64.0674C77.4805 71.3371 66.3416 76.2234 53.5879 76.2234C39.8332 76.2234 27.9549 70.5406 22.3863 62.3131C20.4838 59.8703 20.21 57.908 17.4334 58.6738L13.5709 60.2914L13.5707 60.2906L7.98398 62.6293C7.04101 63.0242 5.95586 62.7838 5.25312 62.0402C2.72324 59.3572 1.17305 55.7424 1.17305 51.7633C1.17305 47.7857 2.72324 44.1709 5.25312 41.4879Z" fill="url(#paint0_linear_63_19)"/>
<path d="M5.25327 41.4877C5.95464 40.743 7.04116 40.5039 7.98413 40.8988L11.0339 42.175C11.0339 42.175 8.34663 47.0451 8.34663 52.4465C8.34663 57.8477 10.1218 61.7338 10.1218 61.7338L7.98413 62.6293C7.04097 63.0242 5.95464 62.7838 5.25327 62.0402C2.72359 59.3572 1.17183 55.7424 1.17183 51.7633C1.17183 47.7857 2.72359 44.1709 5.25327 41.4877Z" fill="#597B91"/>
<path d="M80.1622 43.2303C78.7047 43.2303 77.5213 44.4109 77.5213 45.8742V49.1193C77.5213 50.5795 78.7047 51.7631 80.1622 51.7631C81.6225 51.7631 82.8059 50.5797 82.8059 49.1193V45.8742C82.8061 44.4111 81.6225 43.2303 80.1622 43.2303Z" fill="#2B3B47"/>
<path d="M39.8723 34.457C38.8139 35.2119 39.6475 36.1367 40.8912 35.7586C43.7711 34.8814 48.3852 34.1662 53.5869 34.1662C58.7887 34.1662 63.4028 34.8814 66.2826 35.7586C67.5266 36.1367 68.36 35.2119 67.3016 34.457C64.575 32.5147 59.4547 31.1135 53.5869 31.1135C47.7205 31.1135 42.5989 32.5147 39.8723 34.457Z" fill="#AEFFEF"/>
<path d="M67.1388 62.0871L59.4986 65.2859C58.9154 65.5293 58.2462 65.3816 57.8134 64.9221C56.2519 63.2678 55.2949 61.0373 55.2949 58.5834C55.2949 56.1279 56.2519 53.8988 57.8134 52.2434C58.2462 51.7851 58.9154 51.6361 59.4986 51.8807L67.1388 55.0781C67.4125 55.1928 67.6461 55.3858 67.8104 55.6329C67.9747 55.88 68.0623 56.1701 68.0623 56.4668V60.6986C68.0623 60.9953 67.9746 61.2854 67.8103 61.5324C67.646 61.7794 67.4124 61.9724 67.1388 62.0871Z" fill="#00B89C"/>
<path d="M90.4145 52.4572C90.4147 52.3194 90.4668 52.1868 90.5604 52.0856C90.654 51.9845 90.7822 51.9222 90.9195 51.9111V51.9057H98.8281V53.0088H90.9195V53.0035C90.7822 52.9924 90.654 52.9301 90.5604 52.8289C90.4668 52.7277 90.4147 52.5951 90.4145 52.4572Z" fill="#597B91"/>
<defs>
<linearGradient id="paint0_linear_63_19" x1="50.0006" y1="27.3039" x2="50.0006" y2="76.2234" gradientUnits="userSpaceOnUse">
<stop stop-color="#00CBBF"/>
<stop offset="1" stop-color="#EFF400"/>
</linearGradient>
</defs>
</svg>
