<svg width="100" height="100" viewBox="0 0 100 100" fill="none" xmlns="http://www.w3.org/2000/svg">
<path d="M28.5475 30.8189C36.2946 23.0719 44.7049 20.684 53.3332 19.9475C67.6946 18.7232 74.344 22.8273 77.2856 28.7938C80.2287 34.76 74.5506 43.2309 74.5506 43.2309" fill="#597B91"/>
<path d="M33.4855 68.4996C38.5046 72.5459 40.1082 80.2689 35.9312 80.2689C31.7541 80.2689 25.8904 70.5908 24.0281 65.4018M64.9734 52.5463C57.4005 48.9779 48.5501 51.8408 45.2052 58.9414C41.8587 66.0406 45.2853 74.6898 52.858 78.257C60.4308 81.8254 69.281 78.9625 72.6261 71.8619C75.9726 64.7629 72.546 56.1148 64.9734 52.5463ZM70.4851 47.2949C70.4851 47.2949 76.1632 37.8908 73.2201 31.2652C70.2785 24.6398 63.6291 20.0832 49.2677 21.4422C40.6394 22.2602 32.2291 24.9109 24.482 33.5139" fill="#00B89C"/>
<path d="M94.7469 41.4879C94.0441 40.743 92.959 40.5039 92.016 40.8988L85.5059 43.624V43.6236L83.6381 44.4055L83.6379 44.4051C79.6293 46.0834 79.7391 43.6363 77.2625 40.7102L77.2596 40.707C71.5523 32.7543 59.8822 27.3039 46.4119 27.3039C33.6422 27.3039 22.491 32.2023 16.5037 39.4873C11.7854 44.0852 6.72676 47.2938 3.54687 48.5658C2.10781 49.1422 1.17188 50.5406 1.17188 52.0895C1.17182 52.7504 1.35932 53.3977 1.7126 53.9563C2.06587 54.5149 2.57041 54.9617 3.16758 55.2449C6.18887 56.6768 12.042 59.7658 16.5268 64.0674C22.5195 71.3371 33.6584 76.2234 46.4121 76.2234C60.1668 76.2234 72.0451 70.5406 77.6137 62.3131C79.5162 59.8703 79.79 57.908 82.5666 58.6738L86.4291 60.2914L86.4293 60.2906L92.016 62.6293C92.959 63.0242 94.0441 62.7838 94.7469 62.0402C97.2768 59.3572 98.827 55.7424 98.827 51.7633C98.827 47.7857 97.2768 44.1709 94.7469 41.4879Z" fill="url(#paint0_linear_63_19)"/>
<path d="M94.7467 41.4877C94.0454 40.743 92.9588 40.5039 92.0159 40.8988L88.9661 42.175C88.9661 42.175 91.6534 47.0451 91.6534 52.4465C91.6534 57.8477 89.8782 61.7338 89.8782 61.7338L92.0159 62.6293C92.959 63.0242 94.0454 62.7838 94.7467 62.0402C97.2764 59.3572 98.8282 55.7424 98.8282 51.7633C98.8282 47.7857 97.2764 44.1709 94.7467 41.4877Z" fill="#597B91"/>
<path d="M19.8378 43.2303C21.2953 43.2303 22.4787 44.4109 22.4787 45.8742V49.1193C22.4787 50.5795 21.2953 51.7631 19.8378 51.7631C18.3775 51.7631 17.1941 50.5797 17.1941 49.1193V45.8742C17.1939 44.4111 18.3775 43.2303 19.8378 43.2303Z" fill="#2B3B47"/>
<path d="M60.1277 34.457C61.1861 35.2119 60.3525 36.1367 59.1088 35.7586C56.2289 34.8814 51.6148 34.1662 46.4131 34.1662C41.2113 34.1662 36.5972 34.8814 33.7174 35.7586C32.4734 36.1367 31.64 35.2119 32.6984 34.457C35.425 32.5147 40.5453 31.1135 46.4131 31.1135C52.2795 31.1135 57.4011 32.5147 60.1277 34.457Z" fill="#AEFFEF"/>
<path d="M32.8612 62.0871L40.5014 65.2859C41.0846 65.5293 41.7538 65.3816 42.1866 64.9221C43.7481 63.2678 44.7051 61.0373 44.7051 58.5834C44.7051 56.1279 43.7481 53.8988 42.1866 52.2434C41.7538 51.7851 41.0846 51.6361 40.5014 51.8807L32.8612 55.0781C32.5875 55.1928 32.3539 55.3858 32.1896 55.6329C32.0253 55.88 31.9377 56.1701 31.9377 56.4668V60.6986C31.9377 60.9953 32.0254 61.2854 32.1897 61.5324C32.354 61.7794 32.5876 61.9724 32.8612 62.0871Z" fill="#00B89C"/>
<path d="M9.58555 52.4572C9.58525 52.3194 9.53315 52.1868 9.43958 52.0856C9.34602 51.9845 9.21783 51.9222 9.08047 51.9111V51.9057H1.17188V53.0088H9.08047V53.0035C9.21785 52.9924 9.34604 52.9301 9.4396 52.8289C9.53316 52.7277 9.58526 52.5951 9.58555 52.4572Z" fill="#597B91"/>
<defs>
<linearGradient id="paint0_linear_63_19" x1="49.9994" y1="27.3039" x2="49.9994" y2="76.2234" gradientUnits="userSpaceOnUse">
<stop stop-color="#00CBBF"/>
<stop offset="1" stop-color="#EFF400"/>
</linearGradient>
</defs>
</svg>
