<svg width="101" height="100" viewBox="0 0 101 100" fill="none" xmlns="http://www.w3.org/2000/svg">
<g clip-path="url(#clip0_27_22)">
<path d="M0.454897 57.9375C0.861147 56.5156 1.61896 55.3516 2.30646 54.2813C2.74396 53.6172 3.22834 52.8516 3.50177 52.1094C3.79865 51.2656 4.19708 50.5234 4.5799 49.8125C4.93927 49.1484 5.27521 48.5313 5.43927 47.9531C5.74396 46.9297 5.56427 45.6563 5.36115 44.3125C5.29865 43.9141 5.24396 43.5234 5.19708 43.1328C5.00177 41.5547 4.71271 39.9922 4.3299 38.4844C4.27521 38.2969 4.18927 38.0078 4.0799 37.6484C2.8299 33.5859 2.44708 31.5391 3.49396 30.1328C3.97833 29.4688 4.74396 29.0938 5.57208 29.0938C6.75958 29.0938 7.78302 29.8828 8.54865 30.5703C9.22833 31.1797 9.74396 31.8828 10.1971 32.5078L10.5565 33.0078C11.2908 33.9844 12.033 34.9453 12.783 35.9062C13.7752 37.1953 14.7752 38.4922 15.7596 39.8125C15.994 40.1172 16.2283 40.4844 16.494 40.875C16.8846 41.4844 17.8143 42.9063 18.3143 43.0234C18.6111 43.0234 19.1893 42.7422 19.658 42.5156L20.0096 42.3516C22.7049 41.0703 25.619 39.7109 28.6502 38.4531C29.3611 36.9922 30.4549 35.6797 31.2361 34.2734C32.244 32.4453 33.2283 29.0234 35.869 29.6172C37.7908 30.0547 39.744 32.4219 41.1346 33.7109C41.3221 33.8828 41.494 34.0391 41.6424 34.1875C47.408 32.6172 53.1658 31.3906 59.0877 31.0703C59.5408 29.6563 59.4783 28 59.3377 26.4844C59.1736 24.7188 58.7361 22.3828 61.3299 23.1641C63.0252 23.6719 64.5252 25.1562 65.9158 26.2109C68.0877 27.8672 69.9002 29.8281 71.6424 31.9219C73.4705 32.2813 75.2596 32.7266 76.9783 33.2969C83.0565 35.3125 88.369 38.6016 92.7752 43.0859C94.0643 44.4063 95.2674 45.8203 96.3533 47.2734C96.9236 48.0312 97.4783 48.8203 98.0018 49.6563L98.3377 50.1641C98.783 50.8359 99.283 51.5937 99.619 52.5859C100.291 54.5703 99.0565 55.8984 98.4705 56.5391L98.1268 56.8516C98.119 57.0312 98.1268 57.1641 98.1346 57.2813C98.1658 58 98.1502 58.7344 97.4315 59.8437C95.2049 63.2578 91.3065 65.375 88.4549 66.9219L87.8768 67.2422C84.7205 68.9688 81.3299 70.2812 77.5252 71.2812C75.4471 71.8203 73.369 72.2656 71.3065 72.625C70.6893 73.1094 70.0877 73.5156 69.9393 73.6094C67.5643 75.2031 64.5252 76.9375 61.5721 76.9375C59.2908 76.9375 61.0877 74.6484 61.7205 73.8125C61.7752 73.7422 61.8221 73.6641 61.8846 73.5859C61.1346 73.6094 60.3611 73.6719 59.6346 73.6719C57.8533 73.6719 56.0955 73.5938 54.3924 73.4453C49.5174 73.0156 44.4471 71.7734 39.3221 69.7578C39.1893 69.7031 39.0643 69.6484 38.9393 69.5938C38.7361 69.625 38.533 69.6563 38.4002 69.6797C36.658 69.9922 34.869 70.7031 33.0799 70.5781C30.5955 70.3984 30.5486 69.1562 29.7127 67.1797C29.3143 66.2734 29.0721 65.3359 28.6971 64.4297C28.6502 64.3203 28.5955 64.1875 28.5408 64.0703C26.2596 62.5625 23.9627 60.8594 21.6268 58.9297C20.8377 58.2891 19.9861 57.7188 19.0799 57.1172C18.1658 56.5 17.2127 55.8672 16.1424 55.0859C15.2674 55.0859 13.6346 56.2812 12.8533 56.8516L11.9705 57.4922C10.4158 58.625 8.80646 59.7969 6.99396 60.7266C6.17365 61.1484 4.61114 61.8594 3.29083 61.8594C1.94708 61.8594 1.22833 61.1641 0.915831 60.7578C0.454894 60.25 0.0642717 59.3281 0.454897 57.9375Z" fill="#006CA2"/>
<path d="M21.3846 53.5781C22.3456 54.2109 23.3221 54.8672 24.2753 55.6484C29.9706 60.3281 35.3846 63.6563 40.83 65.7969C45.5721 67.6641 50.244 68.8125 54.7206 69.2031C57.6346 69.4688 60.7128 69.4844 63.8768 69.2656C67.494 69.0078 71.205 68.4141 74.9393 67.5234C74.4628 66.4688 74.0721 65.3672 73.7753 64.25C73.4159 62.9141 73.2909 61.1719 73.4159 59.6563C72.8612 59.8438 72.3221 60.0156 71.7675 60.2188C70.0175 60.8672 68.2362 61.2891 66.4628 61.3047C65.1346 61.3047 64.1815 60.0547 63.1425 58.8672C62.0096 57.5625 60.8143 56.2813 60.58 53.6094C60.5175 52.9766 60.3065 52.0937 60.5956 51.6328C60.9315 51.0781 61.6971 51.1719 62.119 51.0547C62.6815 50.9141 63.2284 50.8516 63.7753 50.7812C65.369 50.5781 66.8534 50.6953 68.4237 51.0391C70.205 51.4219 72.0253 51.9453 73.7518 52.7969C73.9784 52.9063 74.1971 53.0469 74.4237 53.1797C74.7675 51.6953 75.33 50.25 75.8612 48.8281C76.2753 47.7188 76.5487 46.6016 77.5253 45.8203C78.0487 45.3984 79.3846 45.0156 79.6346 45.9297C79.7362 46.3125 79.5018 46.8672 79.2206 47.3906C78.994 47.8125 78.7518 48.2109 78.6503 48.5C77.9315 50.5938 77.5956 52.7969 77.2675 54.9688C76.869 57.5547 76.7675 59.7344 76.9471 62.3594C77.0331 63.6016 77.3768 64.7969 77.7987 65.8437C77.9159 66.125 78.0487 66.3984 78.1971 66.6641C80.9471 65.8281 83.455 64.8047 85.7987 63.5234L86.3846 63.2031C88.9315 61.8203 92.1034 60.0938 93.8378 57.5078C93.8221 57.3047 93.8143 57.0625 93.83 56.7578C93.2753 55.9375 91.869 56.2422 91.1112 56.5078C90.1346 56.8516 89.205 57.5078 88.1737 57.4141C87.1815 57.3281 86.8143 56.3281 87.3534 55.5313C87.869 54.75 89.1268 54.3828 89.9315 53.9844C90.8534 53.5234 91.9471 53.3203 92.9393 53.0391C93.5643 52.8594 94.2206 52.7891 94.8768 52.7734C94.83 52.7031 94.7987 52.6406 94.7518 52.5703C94.619 52.3672 94.4784 52.1641 94.3612 51.9609C93.9081 51.2344 93.4081 50.5391 92.9159 49.8672C91.9393 48.5625 90.869 47.3047 89.705 46.1172C88.7753 45.1719 87.7909 44.2813 86.7753 43.4609C86.1034 42.9609 84.455 42.0312 81.9862 42.4922C79.369 42.9844 77.8221 44.2422 73.2128 43.5156C68.5956 42.7891 68.0565 40.625 63.5565 40.625C59.0565 40.625 57.4784 44.1406 51.9706 44.4063C47.0643 44.6328 46.619 41.7109 41.9081 42.4141C37.1971 43.1094 36.7518 47.6484 30.4003 47.6484C24.0487 47.6484 23.1503 45.3828 16.5096 50.2187C16.5331 50.4375 16.5878 50.6641 16.6503 50.8984C17.494 51 18.2753 51.3125 18.9315 51.8438C19.6815 52.4375 20.5096 52.9922 21.3846 53.5781" fill="#40C0E7"/>
<mask id="mask0_27_22" style="mask-type:luminance" maskUnits="userSpaceOnUse" x="16" y="40" width="79" height="30">
<path d="M21.3846 53.5781C22.3456 54.2109 23.3221 54.8672 24.2753 55.6484C29.9706 60.3281 35.3846 63.6563 40.83 65.7969C45.5721 67.6641 50.244 68.8125 54.7206 69.2031C57.6346 69.4688 60.7128 69.4844 63.8768 69.2656C67.494 69.0078 71.205 68.4141 74.9393 67.5234C74.4628 66.4688 74.0721 65.3672 73.7753 64.25C73.4159 62.9141 73.2909 61.1719 73.4159 59.6563C72.8612 59.8438 72.3221 60.0156 71.7675 60.2188C70.0175 60.8672 68.2362 61.2891 66.4628 61.3047C65.1346 61.3047 64.1815 60.0547 63.1425 58.8672C62.0096 57.5625 60.8143 56.2813 60.58 53.6094C60.5175 52.9766 60.3065 52.0937 60.5956 51.6328C60.9315 51.0781 61.6971 51.1719 62.119 51.0547C62.6815 50.9141 63.2284 50.8516 63.7753 50.7812C65.369 50.5781 66.8534 50.6953 68.4237 51.0391C70.205 51.4219 72.0253 51.9453 73.7518 52.7969C73.9784 52.9063 74.1971 53.0469 74.4237 53.1797C74.7675 51.6953 75.33 50.25 75.8612 48.8281C76.2753 47.7188 76.5487 46.6016 77.5253 45.8203C78.0487 45.3984 79.3846 45.0156 79.6346 45.9297C79.7362 46.3125 79.5018 46.8672 79.2206 47.3906C78.994 47.8125 78.7518 48.2109 78.6503 48.5C77.9315 50.5938 77.5956 52.7969 77.2675 54.9688C76.869 57.5547 76.7675 59.7344 76.9471 62.3594C77.0331 63.6016 77.3768 64.7969 77.7987 65.8437C77.9159 66.125 78.0487 66.3984 78.1971 66.6641C80.9471 65.8281 83.455 64.8047 85.7987 63.5234L86.3846 63.2031C88.9315 61.8203 92.1034 60.0938 93.8378 57.5078C93.8221 57.3047 93.8143 57.0625 93.83 56.7578C93.2753 55.9375 91.869 56.2422 91.1112 56.5078C90.1346 56.8516 89.205 57.5078 88.1737 57.4141C87.1815 57.3281 86.8143 56.3281 87.3534 55.5313C87.869 54.75 89.1268 54.3828 89.9315 53.9844C90.8534 53.5234 91.9471 53.3203 92.9393 53.0391C93.5643 52.8594 94.2206 52.7891 94.8768 52.7734C94.83 52.7031 94.7987 52.6406 94.7518 52.5703C94.619 52.3672 94.4784 52.1641 94.3612 51.9609C93.9081 51.2344 93.4081 50.5391 92.9159 49.8672C91.9393 48.5625 90.869 47.3047 89.705 46.1172C88.7753 45.1719 87.7909 44.2813 86.7753 43.4609C86.1034 42.9609 84.455 42.0312 81.9862 42.4922C79.369 42.9844 77.8221 44.2422 73.2128 43.5156C68.5956 42.7891 68.0565 40.625 63.5565 40.625C59.0565 40.625 57.4784 44.1406 51.9706 44.4063C47.0643 44.6328 46.619 41.7109 41.9081 42.4141C37.1971 43.1094 36.7518 47.6484 30.4003 47.6484C24.0487 47.6484 23.1503 45.3828 16.5096 50.2187C16.5331 50.4375 16.5878 50.6641 16.6503 50.8984C17.494 51 18.2753 51.3125 18.9315 51.8438C19.6815 52.4375 20.5096 52.9922 21.3846 53.5781" fill="white"/>
</mask>
<g mask="url(#mask0_27_22)">
<path d="M95.8768 54.3359C95.8768 54.3359 81.1346 59.1328 55.0956 58.5859C33.0643 58.125 12.6737 48.3281 12.6737 48.3281L13.4003 52.3359L17.5721 53.4922C17.5721 53.4922 34.6581 70.8672 54.5175 71.3437C61.6034 71.5078 71.869 70.7188 78.2128 68.7266C89.6737 65.1016 95.2596 59.1484 95.2596 59.1484L95.8768 54.3359Z" fill="white"/>
</g>
<path d="M86.5174 47.625C87.9627 47.7031 89.0956 49.0938 89.0174 50.7109C88.9393 52.3359 87.7049 53.5781 86.2596 53.5C84.7987 53.4141 83.6659 52.0391 83.744 50.4141C83.8299 48.7969 85.0643 47.5391 86.5174 47.625Z" fill="#2F2F2F"/>
</g>
<defs>
<clipPath id="clip0_27_22">
<rect width="100" height="100" fill="white" transform="matrix(-1 0 0 1 100.033 0)"/>
</clipPath>
</defs>
</svg>
