<svg width="213" height="213" viewBox="0 0 213 213" fill="none" xmlns="http://www.w3.org/2000/svg">
<path d="M143.442 168.403C126.136 168.403 111.492 158.419 111.492 146.77C111.492 135.122 126.136 125.138 143.442 125.138C160.748 125.138 175.392 135.122 175.392 146.77C175.059 158.419 160.748 168.403 143.442 168.403Z" fill="url(#paint0_linear_88_318)"/>
<path d="M143.443 128.133C160.416 128.133 172.397 137.784 172.397 146.437C172.397 155.091 160.416 164.742 143.443 164.742C126.469 164.742 114.488 155.091 114.488 146.437C114.488 137.784 126.469 128.133 143.443 128.133ZM143.443 121.809C124.472 121.809 108.83 133.125 108.83 146.77C108.83 160.416 124.472 171.731 143.443 171.731C162.413 171.731 178.055 160.416 178.055 146.77C178.055 132.792 162.413 121.809 143.443 121.809Z" fill="#3E4347"/>
<path d="M93.5205 84.5344C77.8783 84.5344 65.2314 73.8844 65.2314 60.9047C65.2314 47.925 77.8783 37.275 93.5205 37.275C109.163 37.275 121.81 47.925 121.81 60.9047C121.81 73.8844 108.83 84.5344 93.5205 84.5344Z" fill="url(#paint1_linear_88_318)"/>
<path d="M93.5207 40.6031C107.166 40.6031 118.814 49.9219 118.814 60.5719C118.814 71.5547 107.166 80.5406 93.5207 80.5406C79.8754 80.5406 68.227 71.2219 68.227 60.5719C68.227 49.9219 79.5426 40.6031 93.5207 40.6031ZM93.5207 33.2812C76.2145 33.2812 62.2363 45.5953 62.2363 60.5719C62.2363 75.5484 76.2145 87.8625 93.5207 87.8625C110.827 87.8625 124.805 75.5484 124.805 60.5719C124.805 45.5953 110.827 33.2812 93.5207 33.2812Z" fill="#3E4347"/>
<path d="M151.429 106.167C144.773 106.167 138.117 102.839 133.125 96.8484C128.465 91.5234 125.803 84.5344 125.137 77.5453C124.804 70.5563 126.469 64.5656 130.129 60.2391C133.458 56.2453 138.117 54.2484 143.109 54.2484C149.765 54.2484 156.422 57.5766 161.414 63.5672C166.073 68.8922 168.736 75.8813 169.401 82.8703C169.734 89.8594 168.07 95.85 164.409 100.177C161.081 103.838 156.754 106.167 151.429 106.167Z" fill="url(#paint2_linear_88_318)"/>
<path d="M143.442 57.2438C149.1 57.2438 155.091 60.2391 159.417 65.5641C163.411 70.5563 166.074 76.5469 166.406 82.8703C166.739 88.5281 165.408 93.8531 162.413 97.5141C159.085 101.508 154.758 102.506 151.763 102.506C146.105 102.506 140.114 99.5109 135.788 94.1859C131.794 89.1937 129.131 83.2031 128.799 76.8797C128.466 71.2219 129.797 65.8969 132.792 62.2359C136.12 58.2422 140.447 57.2438 143.442 57.2438ZM143.442 49.9219C137.785 49.9219 132.46 52.2516 128.466 56.9109C119.48 67.5609 120.811 86.5313 131.461 98.8453C137.452 105.834 144.774 109.495 151.763 109.495C157.42 109.495 162.745 107.166 166.739 102.506C175.725 91.8562 174.394 72.8859 163.744 60.5719C158.086 53.5828 150.431 49.9219 143.442 49.9219Z" fill="#3E4347"/>
<path d="M96.1825 176.058C91.856 176.058 87.5294 175.059 82.87 173.062C70.2231 167.737 61.57 156.089 64.2325 147.436C65.8966 142.444 71.5544 139.116 79.2091 139.116C83.5356 139.116 87.8622 140.114 92.5216 142.111C98.845 144.773 104.503 149.433 108.164 154.425C111.159 159.084 112.49 163.744 111.159 167.405C109.495 172.73 103.837 176.058 96.1825 176.058Z" fill="url(#paint3_linear_88_318)"/>
<path d="M79.5418 143.109C83.5356 143.109 87.5293 144.108 91.5231 145.772C97.5137 148.434 102.506 152.428 105.501 157.088C107.831 160.748 108.829 164.077 108.164 166.406C107.165 169.734 102.173 172.064 96.1825 172.064C92.1887 172.064 88.195 171.066 84.2012 169.402C72.5528 164.409 65.8965 154.425 67.5606 148.767C68.559 145.439 73.5512 143.109 79.5418 143.109ZM79.5418 135.455C70.8887 135.455 63.8997 139.448 61.57 146.105C58.2418 156.422 67.5606 170.067 81.8715 176.391C86.8637 178.388 91.8559 179.386 96.1825 179.386C104.836 179.386 111.825 175.392 114.154 168.736C117.482 158.419 108.164 144.773 93.8528 138.45C88.8606 136.453 83.8684 135.455 79.5418 135.455Z" fill="#3E4347"/>
<path d="M116.484 61.2375C106.167 57.5766 94.8512 55.2469 82.5372 55.2469C78.8762 55.2469 75.5481 55.5797 72.22 55.9125C78.2106 71.2219 81.2059 87.8625 81.2059 104.836C81.2059 123.806 77.2122 142.444 69.8903 159.084C73.884 159.75 78.2106 159.75 82.5372 159.75C88.195 159.75 93.52 159.75 98.5122 159.417C96.8481 151.097 96.1825 142.444 96.1825 133.458C96.1825 107.166 103.172 81.8719 116.484 61.2375ZM49.2559 62.236C16.9731 77.2125 7.65434 111.159 7.65434 111.159C7.65434 111.159 9.98403 113.156 10.9825 115.486C11.9809 117.483 4.99184 118.481 6.98872 121.809C12.6465 131.128 29.2872 144.773 46.5934 152.761C54.2481 138.45 58.2418 122.142 58.2418 104.836C58.2418 89.8594 55.2465 75.2156 49.2559 62.236ZM200.686 111.492C200.686 100.509 213.665 92.1891 200.686 76.5469C200.686 76.5469 193.364 85.2 186.375 90.8578C186.042 95.1844 185.709 99.8438 185.709 104.17C185.709 116.152 187.373 128.133 190.701 139.448C197.025 142.777 200.686 146.105 200.686 146.105C213.665 130.795 200.686 123.141 200.686 111.492ZM164.076 90.1922C154.757 82.5375 145.439 75.5485 135.122 69.8906C129.797 82.8703 126.801 96.8485 126.801 111.492C126.801 125.803 129.464 139.448 134.456 152.095C144.107 148.767 154.425 143.775 166.739 137.119C164.409 126.469 163.411 115.486 163.411 104.17C163.411 99.8438 163.411 94.8516 164.076 90.1922Z" fill="url(#paint4_linear_88_318)"/>
<path d="M61.2373 104.836C61.2373 122.808 56.9107 139.781 49.5889 154.092C54.5811 156.089 60.2389 157.753 66.5623 158.752C73.8842 142.777 78.2107 124.472 78.2107 105.169C78.2107 87.8625 74.8826 71.5547 68.892 56.9109C62.9014 57.9094 57.2436 59.5734 52.2514 61.5703C57.9092 73.8844 61.2373 88.8609 61.2373 104.836Z" fill="url(#paint5_linear_88_318)"/>
<path d="M71.8875 55.9125C70.8891 55.9125 69.8906 56.2453 68.5594 56.2453C74.55 70.8891 77.8781 87.1969 77.8781 104.503C77.8781 124.139 73.5516 142.444 66.2297 158.086C67.2281 158.419 68.5594 158.419 69.5578 158.419C76.8797 141.778 80.8734 123.141 80.8734 104.17C81.2062 87.8625 77.8781 71.2219 71.8875 55.9125ZM61.2375 104.836C61.2375 89.1938 57.9094 74.2172 52.2516 61.2375C51.2531 61.5703 50.2547 61.9031 49.2563 62.5688C55.2469 75.5484 58.2422 90.1922 58.2422 105.169C58.2422 122.475 54.2484 138.783 46.5938 153.094C47.5922 153.427 48.5906 154.092 49.5891 154.425C56.9109 139.448 61.2375 122.808 61.2375 104.836Z" fill="black"/>
<path d="M99.1777 133.458C99.1777 142.111 100.176 150.764 101.507 159.084C111.492 158.419 121.143 156.755 131.461 153.427C126.468 140.78 123.473 126.469 123.473 111.825C123.473 96.1828 126.468 81.5391 131.793 68.5594C127.8 66.2297 123.473 64.2328 119.146 62.5688C106.832 82.2047 99.1777 106.833 99.1777 133.458Z" fill="#F9F9F9"/>
<path d="M99.1779 133.458C99.1779 106.833 106.833 82.2047 119.479 62.5687C118.481 62.2359 117.483 61.9031 116.484 61.2375C103.172 81.8719 96.1826 107.166 96.1826 133.458C96.1826 142.111 96.8482 150.764 98.5123 159.417C99.5107 159.417 100.509 159.417 101.508 159.084C100.176 150.764 99.1779 142.111 99.1779 133.458ZM135.122 69.8906C134.123 69.225 133.125 68.8922 132.459 68.2266C127.134 81.2062 124.139 95.85 124.139 111.492C124.139 126.469 126.801 140.447 132.126 153.094L135.122 152.095C130.129 139.448 127.467 125.47 127.467 111.492C126.801 96.8484 129.464 82.8703 135.122 69.8906Z" fill="#151716"/>
<path d="M168.403 93.5203C168.07 93.1875 167.405 92.8547 167.072 92.1891C166.739 96.5156 166.406 100.509 166.406 104.503C166.406 115.153 167.405 125.803 169.734 135.787C170.4 135.455 171.066 134.789 172.064 134.456C174.727 132.792 181.05 135.122 187.041 137.784C184.378 127.134 182.714 116.152 182.714 104.503C182.714 100.842 183.047 97.1812 183.047 93.5203C178.055 96.5156 173.062 97.5141 168.403 93.5203Z" fill="#F0F0F0"/>
<path d="M166.406 104.503C166.406 100.509 166.739 96.5156 166.739 92.5219C165.741 91.8563 164.742 90.8578 163.744 90.1922C163.411 95.1844 163.078 99.8438 163.078 104.503C163.078 115.486 164.077 126.469 166.406 137.452C167.405 136.786 168.403 136.453 169.402 135.788C167.405 125.47 166.406 115.153 166.406 104.503ZM186.042 91.1906C185.044 92.1891 183.713 92.8547 182.714 93.5203C182.381 97.1813 182.381 100.842 182.381 104.503C182.381 116.152 184.045 127.467 186.708 137.784C188.039 138.45 189.37 139.116 190.369 139.781C187.041 128.466 185.377 116.484 185.377 104.503C185.377 99.8438 185.709 95.5172 186.042 91.1906Z" fill="#3E4347"/>
<path d="M85.5324 93.1875C75.8809 103.172 73.884 125.47 90.1918 126.802C109.828 128.466 119.479 143.442 129.131 133.458C138.782 123.473 135.454 108.164 124.139 96.5156C112.823 84.5344 95.5168 83.2031 85.5324 93.1875Z" fill="url(#paint6_linear_88_318)"/>
<path d="M85.8656 93.1875C80.8734 98.1797 78.5438 105.502 78.8766 112.158C79.2094 115.486 80.2078 118.814 82.5375 121.144C84.5344 123.473 87.5297 124.472 90.8578 124.805C98.1797 125.138 105.169 127.8 111.492 130.795C114.82 132.127 117.816 133.458 120.811 134.123C123.806 134.456 125.803 133.458 127.8 131.128C129.797 128.798 131.128 126.136 131.794 123.141C132.459 120.145 132.127 117.15 131.128 114.155C129.464 108.164 125.47 102.506 121.144 97.8469C116.817 93.5203 111.159 89.8594 104.836 88.1953C101.508 87.5297 98.1797 87.5297 94.8516 88.1953C91.5234 89.1938 88.1953 90.8578 85.8656 93.1875ZM85.5328 92.8547C90.525 87.5297 97.5141 84.8672 105.169 84.8672C112.491 84.8672 120.145 87.8625 125.803 93.1875C131.128 98.1797 135.788 104.836 137.784 112.491C138.783 116.484 138.783 120.478 137.784 124.472C136.786 128.466 134.789 132.127 131.794 134.789C130.275 136.346 128.466 137.589 126.469 138.45C124.472 139.116 122.142 139.448 120.145 139.116C116.152 138.45 112.823 136.453 109.828 135.122C103.505 132.127 97.5141 129.464 90.8578 128.466C89.1937 128.133 87.1969 127.8 85.5328 126.802C83.8688 125.803 82.2047 124.472 81.2062 123.141C78.8766 119.812 78.2109 116.152 78.2109 112.491C78.2109 108.83 79.2094 105.169 80.5406 101.841C81.2063 98.5125 82.8703 95.5172 85.5328 92.8547Z" fill="#3E4347"/>
<path d="M35.9436 129.464C46.7882 129.464 55.5795 120.077 55.5795 108.497C55.5795 96.917 46.7882 87.5297 35.9436 87.5297C25.0989 87.5297 16.3076 96.917 16.3076 108.497C16.3076 120.077 25.0989 129.464 35.9436 129.464Z" fill="#FCFCFA"/>
<path d="M35.9441 122.808C43.4802 122.808 49.5895 116.401 49.5895 108.497C49.5895 100.593 43.4802 94.1859 35.9441 94.1859C28.408 94.1859 22.2988 100.593 22.2988 108.497C22.2988 116.401 28.408 122.808 35.9441 122.808Z" fill="#29251C"/>
<defs>
<linearGradient id="paint0_linear_88_318" x1="143.442" y1="125.138" x2="143.442" y2="168.403" gradientUnits="userSpaceOnUse">
<stop stop-color="#FF00C7"/>
<stop offset="1" stop-color="#00FFE0"/>
</linearGradient>
<linearGradient id="paint1_linear_88_318" x1="93.5205" y1="37.275" x2="93.5205" y2="84.5344" gradientUnits="userSpaceOnUse">
<stop stop-color="#FF00C7"/>
<stop offset="1" stop-color="#00FFE0"/>
</linearGradient>
<linearGradient id="paint2_linear_88_318" x1="147.269" y1="54.2484" x2="147.269" y2="106.167" gradientUnits="userSpaceOnUse">
<stop stop-color="#FF00C7"/>
<stop offset="1" stop-color="#00FFE0"/>
</linearGradient>
<linearGradient id="paint3_linear_88_318" x1="87.7126" y1="139.116" x2="87.7126" y2="176.058" gradientUnits="userSpaceOnUse">
<stop stop-color="#FF00C7"/>
<stop offset="1" stop-color="#00FFE0"/>
</linearGradient>
<linearGradient id="paint4_linear_88_318" x1="106.541" y1="159.75" x2="106.541" y2="55.2469" gradientUnits="userSpaceOnUse">
<stop stop-color="#C532B6"/>
<stop offset="1" stop-color="#00F0FF"/>
</linearGradient>
<linearGradient id="paint5_linear_88_318" x1="63.8998" y1="158.752" x2="63.8998" y2="56.9109" gradientUnits="userSpaceOnUse">
<stop stop-color="white"/>
<stop offset="1" stop-color="white"/>
</linearGradient>
<linearGradient id="paint6_linear_88_318" x1="106.452" y1="86.5219" x2="106.452" y2="136.864" gradientUnits="userSpaceOnUse">
<stop/>
<stop offset="1" stop-color="#00FFE0"/>
</linearGradient>
</defs>
</svg>
