<svg width="213" height="213" viewBox="0 0 213 213" fill="none" xmlns="http://www.w3.org/2000/svg">
<path d="M69.5578 168.403C86.8641 168.403 101.508 158.419 101.508 146.77C101.508 135.122 86.8641 125.138 69.5578 125.138C52.2516 125.138 37.6078 135.122 37.6078 146.77C37.9406 158.419 52.2516 168.403 69.5578 168.403Z" fill="url(#paint0_linear_88_318)"/>
<path d="M69.5574 128.133C52.584 128.133 40.6027 137.784 40.6027 146.437C40.6027 155.091 52.584 164.742 69.5574 164.742C86.5309 164.742 98.5121 155.091 98.5121 146.437C98.5121 137.784 86.5309 128.133 69.5574 128.133ZM69.5574 121.809C88.5277 121.809 104.17 133.125 104.17 146.77C104.17 160.416 88.5277 171.731 69.5574 171.731C50.5871 171.731 34.9449 160.416 34.9449 146.77C34.9449 132.792 50.5871 121.809 69.5574 121.809Z" fill="#3E4347"/>
<path d="M119.479 84.5344C135.122 84.5344 147.769 73.8844 147.769 60.9047C147.769 47.925 135.122 37.275 119.479 37.275C103.837 37.275 91.1904 47.925 91.1904 60.9047C91.1904 73.8844 104.17 84.5344 119.479 84.5344Z" fill="url(#paint1_linear_88_318)"/>
<path d="M119.479 40.6031C105.834 40.6031 94.1856 49.9219 94.1856 60.5719C94.1856 71.5547 105.834 80.5406 119.479 80.5406C133.125 80.5406 144.773 71.2219 144.773 60.5719C144.773 49.9219 133.457 40.6031 119.479 40.6031ZM119.479 33.2812C136.786 33.2812 150.764 45.5953 150.764 60.5719C150.764 75.5484 136.786 87.8625 119.479 87.8625C102.173 87.8625 88.1949 75.5484 88.1949 60.5719C88.1949 45.5953 102.173 33.2812 119.479 33.2812Z" fill="#3E4347"/>
<path d="M61.5705 106.167C68.2268 106.167 74.883 102.839 79.8752 96.8484C84.5346 91.5234 87.1971 84.5344 87.8627 77.5453C88.1955 70.5563 86.5314 64.5656 82.8705 60.2391C79.5424 56.2453 74.883 54.2484 69.8908 54.2484C63.2346 54.2484 56.5783 57.5766 51.5861 63.5672C46.9268 68.8922 44.2642 75.8813 43.5986 82.8703C43.2658 89.8594 44.9299 95.85 48.5908 100.177C51.9189 103.838 56.2455 106.167 61.5705 106.167Z" fill="url(#paint2_linear_88_318)"/>
<path d="M69.5577 57.2438C63.8999 57.2438 57.9092 60.2391 53.5827 65.5641C49.5889 70.5563 46.9264 76.5469 46.5936 82.8703C46.2608 88.5281 47.592 93.8531 50.5874 97.5141C53.9155 101.508 58.242 102.506 61.2374 102.506C66.8952 102.506 72.8858 99.5109 77.2124 94.1859C81.2061 89.1937 83.8686 83.2031 84.2014 76.8797C84.5342 71.2219 83.203 65.8969 80.2077 62.2359C76.8795 58.2422 72.553 57.2438 69.5577 57.2438ZM69.5577 49.9219C75.2155 49.9219 80.5405 52.2516 84.5342 56.9109C93.5202 67.5609 92.1889 86.5313 81.5389 98.8453C75.5483 105.834 68.2264 109.495 61.2374 109.495C55.5795 109.495 50.2545 107.166 46.2608 102.506C37.2749 91.8562 38.6061 72.8859 49.2561 60.5719C54.9139 53.5828 62.5686 49.9219 69.5577 49.9219Z" fill="#3E4347"/>
<path d="M116.817 176.058C121.144 176.058 125.471 175.059 130.13 173.062C142.777 167.737 151.43 156.089 148.767 147.436C147.103 142.444 141.446 139.116 133.791 139.116C129.464 139.116 125.138 140.114 120.478 142.111C114.155 144.773 108.497 149.433 104.836 154.425C101.841 159.084 100.51 163.744 101.841 167.405C103.505 172.73 109.163 176.058 116.817 176.058Z" fill="url(#paint3_linear_88_318)"/>
<path d="M133.458 143.109C129.464 143.109 125.471 144.108 121.477 145.772C115.486 148.434 110.494 152.428 107.499 157.088C105.169 160.748 104.171 164.077 104.836 166.406C105.835 169.734 110.827 172.064 116.818 172.064C120.811 172.064 124.805 171.066 128.799 169.402C140.447 164.409 147.103 154.425 145.439 148.767C144.441 145.439 139.449 143.109 133.458 143.109ZM133.458 135.455C142.111 135.455 149.1 139.448 151.43 146.105C154.758 156.422 145.439 170.067 131.128 176.391C126.136 178.388 121.144 179.386 116.818 179.386C108.164 179.386 101.175 175.392 98.8457 168.736C95.5175 158.419 104.836 144.773 119.147 138.45C124.139 136.453 129.132 135.455 133.458 135.455Z" fill="#3E4347"/>
<path d="M96.516 61.2375C106.833 57.5766 118.149 55.2469 130.463 55.2469C134.124 55.2469 137.452 55.5797 140.78 55.9125C134.789 71.2219 131.794 87.8625 131.794 104.836C131.794 123.806 135.788 142.444 143.11 159.084C139.116 159.75 134.789 159.75 130.463 159.75C124.805 159.75 119.48 159.75 114.488 159.417C116.152 151.097 116.818 142.444 116.818 133.458C116.818 107.166 109.828 81.8719 96.516 61.2375ZM163.744 62.236C196.027 77.2125 205.346 111.159 205.346 111.159C205.346 111.159 203.016 113.156 202.018 115.486C201.019 117.483 208.008 118.481 206.011 121.809C200.353 131.128 183.713 144.773 166.407 152.761C158.752 138.45 154.758 122.142 154.758 104.836C154.758 89.8594 157.753 75.2156 163.744 62.236ZM12.3144 111.492C12.3144 100.509 -0.665284 92.1891 12.3144 76.5469C12.3144 76.5469 19.6363 85.2 26.6253 90.8578C26.9582 95.1844 27.291 99.8438 27.291 104.17C27.291 116.152 25.6269 128.133 22.2988 139.448C15.9753 142.777 12.3144 146.105 12.3144 146.105C-0.665284 130.795 12.3144 123.141 12.3144 111.492ZM48.9238 90.1922C58.2425 82.5375 67.5613 75.5485 77.8785 69.8906C83.2035 82.8703 86.1988 96.8485 86.1988 111.492C86.1988 125.803 83.5363 139.448 78.5441 152.095C68.8925 148.767 58.5753 143.775 46.2613 137.119C48.591 126.469 49.5894 115.486 49.5894 104.17C49.5894 99.8438 49.5894 94.8516 48.9238 90.1922Z" fill="url(#paint4_linear_88_318)"/>
<path d="M151.763 104.836C151.763 122.808 156.089 139.781 163.411 154.092C158.419 156.089 152.761 157.753 146.438 158.752C139.116 142.777 134.789 124.472 134.789 105.169C134.789 87.8625 138.117 71.5547 144.108 56.9109C150.099 57.9094 155.756 59.5734 160.749 61.5703C155.091 73.8844 151.763 88.8609 151.763 104.836Z" fill="url(#paint5_linear_88_318)"/>
<path d="M141.112 55.9125C142.111 55.9125 143.109 56.2453 144.441 56.2453C138.45 70.8891 135.122 87.1969 135.122 104.503C135.122 124.139 139.448 142.444 146.77 158.086C145.772 158.419 144.441 158.419 143.442 158.419C136.12 141.778 132.127 123.141 132.127 104.17C131.794 87.8625 135.122 71.2219 141.112 55.9125ZM151.763 104.836C151.763 89.1938 155.091 74.2172 160.748 61.2375C161.747 61.5703 162.745 61.9031 163.744 62.5688C157.753 75.5484 154.758 90.1922 154.758 105.169C154.758 122.475 158.752 138.783 166.406 153.094C165.408 153.427 164.409 154.092 163.411 154.425C156.089 139.448 151.763 122.808 151.763 104.836Z" fill="black"/>
<path d="M113.822 133.458C113.822 142.111 112.824 150.764 111.493 159.084C101.508 158.419 91.8566 156.755 81.5395 153.427C86.5316 140.78 89.527 126.469 89.527 111.825C89.527 96.1828 86.5316 81.5391 81.2066 68.5594C85.2004 66.2297 89.527 64.2328 93.8535 62.5688C106.168 82.2047 113.822 106.833 113.822 133.458Z" fill="#F9F9F9"/>
<path d="M113.822 133.458C113.822 106.833 106.167 82.2047 93.5205 62.5687C94.5189 62.2359 95.5174 61.9031 96.5158 61.2375C109.828 81.8719 116.817 107.166 116.817 133.458C116.817 142.111 116.152 150.764 114.488 159.417C113.489 159.417 112.491 159.417 111.492 159.084C112.824 150.764 113.822 142.111 113.822 133.458ZM77.8783 69.8906C78.8768 69.225 79.8752 68.8922 80.5408 68.2266C85.8658 81.2062 88.8611 95.85 88.8611 111.492C88.8611 126.469 86.1986 140.447 80.8736 153.094L77.8783 152.095C82.8705 139.448 85.533 125.47 85.533 111.492C86.1986 96.8484 83.5361 82.8703 77.8783 69.8906Z" fill="#151716"/>
<path d="M44.5969 93.5203C44.9297 93.1875 45.5953 92.8547 45.9281 92.1891C46.2609 96.5156 46.5938 100.509 46.5938 104.503C46.5938 115.153 45.5953 125.803 43.2656 135.787C42.6 135.455 41.9344 134.789 40.9359 134.456C38.2734 132.792 31.95 135.122 25.9594 137.784C28.6219 127.134 30.2859 116.152 30.2859 104.503C30.2859 100.842 29.9531 97.1812 29.9531 93.5203C34.9453 96.5156 39.9375 97.5141 44.5969 93.5203Z" fill="#F0F0F0"/>
<path d="M46.5938 104.503C46.5938 100.509 46.2609 96.5156 46.2609 92.5219C47.2594 91.8563 48.2578 90.8578 49.2562 90.1922C49.5891 95.1844 49.9219 99.8438 49.9219 104.503C49.9219 115.486 48.9234 126.469 46.5938 137.452C45.5953 136.786 44.5969 136.453 43.5984 135.788C45.5953 125.47 46.5938 115.153 46.5938 104.503ZM26.9578 91.1906C27.9562 92.1891 29.2875 92.8547 30.2859 93.5203C30.6187 97.1813 30.6188 100.842 30.6188 104.503C30.6188 116.152 28.9547 127.467 26.2922 137.784C24.9609 138.45 23.6297 139.116 22.6312 139.781C25.9594 128.466 27.6234 116.484 27.6234 104.503C27.6234 99.8438 27.2906 95.5172 26.9578 91.1906Z" fill="#3E4347"/>
<path d="M127.468 93.1875C137.119 103.172 139.116 125.47 122.808 126.802C103.172 128.466 93.5207 143.442 83.8691 133.458C74.2176 123.473 77.5457 108.164 88.8613 96.5156C100.177 84.5344 117.483 83.2031 127.468 93.1875Z" fill="url(#paint6_linear_88_318)"/>
<path d="M127.134 93.1875C132.127 98.1797 134.456 105.502 134.123 112.158C133.791 115.486 132.792 118.814 130.463 121.144C128.466 123.473 125.47 124.472 122.142 124.805C114.82 125.138 107.831 127.8 101.508 130.795C98.1797 132.127 95.1844 133.458 92.1891 134.123C89.1938 134.456 87.1969 133.458 85.2 131.128C83.2031 128.798 81.8719 126.136 81.2063 123.141C80.5406 120.145 80.8734 117.15 81.8719 114.155C83.5359 108.164 87.5297 102.506 91.8562 97.8469C96.1828 93.5203 101.841 89.8594 108.164 88.1953C111.492 87.5297 114.82 87.5297 118.148 88.1953C121.477 89.1938 124.805 90.8578 127.134 93.1875ZM127.467 92.8547C122.475 87.5297 115.486 84.8672 107.831 84.8672C100.509 84.8672 92.8547 87.8625 87.1969 93.1875C81.8719 98.1797 77.2125 104.836 75.2156 112.491C74.2172 116.484 74.2172 120.478 75.2156 124.472C76.2141 128.466 78.2109 132.127 81.2063 134.789C82.725 136.346 84.5341 137.589 86.5312 138.45C88.5281 139.116 90.8578 139.448 92.8547 139.116C96.8484 138.45 100.177 136.453 103.172 135.122C109.495 132.127 115.486 129.464 122.142 128.466C123.806 128.133 125.803 127.8 127.467 126.802C129.131 125.803 130.795 124.472 131.794 123.141C134.123 119.812 134.789 116.152 134.789 112.491C134.789 108.83 133.791 105.169 132.459 101.841C131.794 98.5125 130.13 95.5172 127.467 92.8547Z" fill="#3E4347"/>
<path d="M177.056 129.464C166.212 129.464 157.421 120.077 157.421 108.497C157.421 96.917 166.212 87.5297 177.056 87.5297C187.901 87.5297 196.692 96.917 196.692 108.497C196.692 120.077 187.901 129.464 177.056 129.464Z" fill="#FCFCFA"/>
<path d="M177.056 122.808C169.52 122.808 163.411 116.401 163.411 108.497C163.411 100.593 169.52 94.1859 177.056 94.1859C184.592 94.1859 190.701 100.593 190.701 108.497C190.701 116.401 184.592 122.808 177.056 122.808Z" fill="#29251C"/>
<defs>
<linearGradient id="paint0_linear_88_318" x1="69.5578" y1="125.138" x2="69.5578" y2="168.403" gradientUnits="userSpaceOnUse">
<stop stop-color="#FF00C7"/>
<stop offset="1" stop-color="#00FFE0"/>
</linearGradient>
<linearGradient id="paint1_linear_88_318" x1="119.479" y1="37.275" x2="119.479" y2="84.5344" gradientUnits="userSpaceOnUse">
<stop stop-color="#FF00C7"/>
<stop offset="1" stop-color="#00FFE0"/>
</linearGradient>
<linearGradient id="paint2_linear_88_318" x1="65.7307" y1="54.2484" x2="65.7307" y2="106.167" gradientUnits="userSpaceOnUse">
<stop stop-color="#FF00C7"/>
<stop offset="1" stop-color="#00FFE0"/>
</linearGradient>
<linearGradient id="paint3_linear_88_318" x1="125.287" y1="139.116" x2="125.287" y2="176.058" gradientUnits="userSpaceOnUse">
<stop stop-color="#FF00C7"/>
<stop offset="1" stop-color="#00FFE0"/>
</linearGradient>
<linearGradient id="paint4_linear_88_318" x1="106.459" y1="159.75" x2="106.459" y2="55.2469" gradientUnits="userSpaceOnUse">
<stop stop-color="#C532B6"/>
<stop offset="1" stop-color="#00F0FF"/>
</linearGradient>
<linearGradient id="paint5_linear_88_318" x1="149.1" y1="158.752" x2="149.1" y2="56.9109" gradientUnits="userSpaceOnUse">
<stop stop-color="white"/>
<stop offset="1" stop-color="white"/>
</linearGradient>
<linearGradient id="paint6_linear_88_318" x1="106.548" y1="86.5219" x2="106.548" y2="136.864" gradientUnits="userSpaceOnUse">
<stop/>
<stop offset="1" stop-color="#00FFE0"/>
</linearGradient>
</defs>
</svg>
