<svg width="128" height="128" viewBox="0 0 128 128" fill="none" xmlns="http://www.w3.org/2000/svg">
<path d="M34.6801 41.05C34.6801 41.05 25.7601 33.17 25.5801 33.35C25.4001 33.53 21.9201 38.32 21.9201 40.76C21.9201 43.81 24.6401 47.14 24.6401 47.14C24.6401 47.14 13.1001 40.76 12.4401 40.95C11.7801 41.14 4.46005 54.56 4.46005 55.5C4.46005 56.44 11.3101 70.61 11.9701 70.8C12.6301 70.99 23.0401 66.01 23.0401 66.01C23.0401 66.01 19.4701 70.33 19.9401 73.89C20.4101 77.46 22.6601 82.9 23.2201 83.18C23.7801 83.46 34.5801 76.42 34.5801 76.42L34.6801 41.05Z" fill="#8A5A54"/>
<path d="M108.54 44.8C108.54 44.8 114.64 31.1 114.27 30.72C113.89 30.34 100.94 37.67 100.94 37.67L108.54 44.8ZM95.59 33.63C95.59 33.63 95.5 17.02 94.93 16.74C94.37 16.46 83.76 29.6 83.76 29.6L95.59 33.63ZM78.13 28.38C78.13 28.38 72.31 12.99 71.75 12.99C71.19 12.99 64.43 30.54 64.43 30.54L78.13 28.38ZM62.08 28.85C62.08 28.85 53.26 15.8 52.41 15.99C51.56 16.18 50.06 32.98 50.06 32.98L62.08 28.85ZM49.22 32.69C49.22 32.69 36.27 23.59 35.71 23.87C35.15 24.15 36.65 41.61 36.65 41.61L49.22 32.69Z" fill="#CD7955"/>
<path d="M112.86 66.29C112.86 66.29 124.22 74.46 124.12 75.77C124.02 77.08 108.92 78.3 108.92 78.3L112.86 66.29ZM106.1 83.66C106.1 83.66 114.45 94.73 113.98 95.49C113.51 96.24 98.4899 92.21 98.4899 92.21L106.1 83.66ZM95.0199 95.58C95.0199 95.58 97.0799 111.91 96.1499 112.29C95.2199 112.67 83.7599 101.12 83.7599 101.12L95.0199 95.58ZM77.9399 101.77C77.9399 101.77 70.4299 116.79 69.8699 116.79C69.3099 116.79 64.7099 100.74 64.7099 100.74L77.9399 101.77ZM57.9499 99.33C57.9499 99.33 47.1599 108.72 46.1199 108.34C45.0899 107.96 46.9599 92.95 46.9599 92.95L57.9499 99.33ZM42.9399 91.26C42.9399 91.26 28.1099 96.42 27.6399 95.86C27.1699 95.3 35.3399 80.84 35.3399 80.84L42.9399 91.26ZM30.41 54.66C29.99 56.56 22.2399 52.55 20.1299 51.56C18.0199 50.57 11.4699 47.62 12.1099 46.49C12.7399 45.36 19.6399 48.53 21.3999 49.31C23.1599 50.08 30.62 53.69 30.41 54.66ZM30.4999 57.19C30.5499 58.31 28.3899 59 20.3599 58.57C12.3299 58.14 8.59995 56.76 8.67995 55.64C8.74995 54.51 17.7599 54.98 20.7199 55.19C23.6799 55.4 30.4299 55.71 30.4999 57.19ZM28.6699 60.29C28.9499 60.9 23.0399 63.36 18.8899 64.56C14.7399 65.76 11.4799 66.93 11.1199 65.87C10.7699 64.81 14.0999 63.43 18.1799 62.09C21.5699 60.98 28.1799 59.23 28.6699 60.29Z" fill="#BA8D72"/>
<path d="M112.01 67.3C112.01 67.3 113.56 66.53 113.77 65.12C113.98 63.71 113.84 58.15 112.29 52.8C110.74 47.45 107.29 42.31 107.29 42.31L109.89 35.83L104.05 38.36C104.05 38.36 100.6 35.33 98.21 34C95.82 32.66 92.93 31.33 92.93 31.33L92.58 23.4L87.79 29.36C87.79 29.36 84.76 28.52 80.96 28.23C77.16 27.95 74.34 27.67 74.34 27.67L71.55 20.49L69.2 27.81C69.2 27.81 66.67 27.74 63.57 27.95C60.47 28.16 58.13 28.47 58.13 28.47L54.38 22.65L53.3 29.78C53.3 29.78 50.95 30.62 48.98 31.47C47.01 32.32 44.36 33.79 44.36 33.79L38.8 29.43L39.57 36.82C39.57 36.82 28.94 42.17 26.55 56.18C24.16 70.19 29.32 74.83 29.32 74.83L112.01 67.3Z" fill="#F3A25C"/>
<path d="M90.28 54.45C103.15 58.43 113.65 65.64 113.65 65.64L112.88 69.09L118.65 74.44L111.33 75.43C111.33 75.43 110.75 77.3 108.63 81.17C106.51 85.04 104.99 86.55 104.99 86.55L108.77 91.94L101.75 90.49C101.75 90.49 99.19 93.41 97.36 94.82C95.53 96.23 92.59 98.58 92.59 98.58L93.51 106.04L87.46 100.9C87.46 100.9 84.71 101.89 81.34 102.52C77.96 103.15 74.37 103.22 74.37 103.22L70.5 110.54L67.83 103.01C67.83 103.01 63.54 102.52 61 102.02C58.47 101.53 54.45 99.49 54.45 99.49L47.69 104.49L48.75 96.47C48.75 96.47 44.95 94.08 43.33 92.88C41.71 91.68 39.53 89.5 39.53 89.5L32.56 91.75L35.73 84.92C35.73 84.92 32.56 81.05 31.01 78.87C29.46 76.69 27.28 71.48 27.28 71.48C27.28 71.48 35.12 59.1 53.05 53.68C68.18 49.1 82.54 52.06 90.28 54.45Z" fill="url(#paint0_radial_35_50)"/>
<path d="M99.9099 78.59C98.9999 79.2 90.0599 69.02 90.0599 69.02C90.0599 69.02 90.5299 66.49 93.0599 65.27C95.5899 64.05 97.8499 65.08 97.8499 65.08C97.8499 65.08 100.75 78.02 99.9099 78.59ZM77.0099 63.76C77.0099 63.76 75.0399 61.04 70.9999 61.32C66.9599 61.6 65.2699 63.57 65.2699 63.57C65.2699 63.57 69.3999 78.02 70.3399 78.02C71.2799 78.02 77.0099 63.76 77.0099 63.76ZM88.5499 92.95C87.7499 93.75 77.3799 84.03 77.3799 84.03C77.3799 84.03 78.5999 81.4 81.2299 79.62C83.8599 77.84 87.9899 78.96 87.9899 78.96C87.9899 78.96 89.2999 92.2 88.5499 92.95ZM63.8699 80.65C63.8699 80.65 63.1699 77.69 59.9299 76.61C56.2699 75.39 54.0199 77.08 54.0199 77.08C54.0199 77.08 53.4599 89.75 54.4899 90.31C55.5199 90.87 63.8699 80.65 63.8699 80.65ZM53.0699 67.61C53.0699 67.61 53.5399 64.61 51.1899 62.82C48.8399 61.03 46.3099 61.6 46.3099 61.6C46.3099 61.6 41.1499 73.52 41.8099 74.08C42.4699 74.65 53.0699 67.61 53.0699 67.61Z" fill="#FBFFFE"/>
<path d="M83.72 40.01C82.82 40.91 81.19 39.17 80.53 38.41C79.87 37.66 78.51 36.25 78.51 36.25L76.11 38C76.11 38 74.19 39.92 73.01 38.75C72.28 38.02 74.75 35.04 75.78 33.92C76.81 32.8 78.08 31.53 78.88 31.67C79.81 31.83 81.15 33.8 81.93 35.05C83.34 37.29 84.47 39.26 83.72 40.01ZM55.04 42.69C54.53 44.38 51.6 42.92 50.82 42.64C49.74 42.26 48.33 41.75 48.33 41.75C48.33 41.75 48.14 43.11 48 44.71C47.91 45.71 47.72 47.76 46.36 47.71C44.95 47.66 44.94 45.17 45 43.91C45.19 40.16 45 38.04 45.89 37.48C46.78 36.92 51.57 39.54 52.55 40.11C53.53 40.68 55.33 41.75 55.04 42.69Z" fill="#CD7955"/>
<path d="M97.14 38.75C101.79 40.49 102.96 44.57 102.35 47.15C101.74 49.73 99.21 53.67 92.17 52.45C85.82 51.35 85.45 45.22 86.87 42.22C88.46 38.84 92.44 36.99 97.14 38.75Z" fill="#FFDC1E"/>
<path d="M99.11 45.22C99.25 48.13 96.57 49.28 94.04 49.11C92.59 49.02 89.54 47.98 89.72 44.93C89.9 42.07 92.35 41.46 94.88 41.5C96.72 41.55 98.99 42.88 99.11 45.22Z" fill="#282F2F"/>
<path d="M104.83 53.01C104.66 48.7 107.83 45.92 112.29 46.67C116.61 47.4 115.75 52.61 115.62 53.19C115.43 54.03 114.96 55.16 114.96 55.16C114.96 55.16 116 55.83 116 57.89C116 59.95 115.22 61.94 111.5 61.41C107.55 60.85 104.97 56.49 104.83 53.01Z" fill="#FF6666"/>
<path d="M113.94 54.77C113.8 55.19 114.18 56.67 112.16 56.65C107.84 56.6 106.97 54.02 106.93 53.46C106.88 52.9 107.49 51.4 111.86 51.49C115.15 51.56 114.13 54.2 113.94 54.77Z" fill="#A82612"/>
<path d="M78.98 52.78C78.74 55.16 75.01 56.31 70.63 56.91C65.84 57.57 62.42 57.38 62.42 57.38C62.42 57.38 60.07 56.25 60.12 49.59C60.17 43.11 62.7 42.27 62.7 42.27C62.7 42.27 69.13 42.74 74.2 46.49C77 48.57 79.16 50.9 78.98 52.78Z" fill="#885B52"/>
<path d="M67.85 46.44C71.36 47.36 79.16 50.43 78.97 52.78C78.83 54.52 75.08 54.09 69.87 54.05C64.37 54 60.71 54.58 60.71 54.58C60.71 54.58 60.54 54.11 60.45 53.71C60.34 53.23 60.32 52.69 60.32 52.69C60.32 52.69 64.71 51.91 68.88 52.03C72.16 52.12 76.67 52.73 75.68 51.61C75.33 51.21 70.1 49.03 67.23 48.51C64.37 47.99 60.19 47.72 60.19 47.72C60.19 47.72 60.24 47.12 60.33 46.52C60.39 46.12 60.54 45.48 60.54 45.48C60.54 45.48 64.8 45.65 67.85 46.44Z" fill="#BA8D72"/>
<defs>
<radialGradient id="paint0_radial_35_50" cx="0" cy="0" r="1" gradientUnits="userSpaceOnUse" gradientTransform="translate(70.8131 49.682) rotate(89.5875) scale(52.1854 46.4032)">
<stop offset="0.622" stop-color="#F4D6B5"/>
<stop offset="0.744" stop-color="#F1D2B2"/>
<stop offset="0.873" stop-color="#E7C5AA"/>
<stop offset="1" stop-color="#D8B19C"/>
</radialGradient>
</defs>
</svg>
