<svg width="128" height="128" viewBox="0 0 128 128" fill="none" xmlns="http://www.w3.org/2000/svg">
<path d="M93.3199 41.05C93.3199 41.05 102.24 33.17 102.42 33.35C102.6 33.53 106.08 38.32 106.08 40.76C106.08 43.81 103.36 47.14 103.36 47.14C103.36 47.14 114.9 40.76 115.56 40.95C116.22 41.14 123.54 54.56 123.54 55.5C123.54 56.44 116.69 70.61 116.03 70.8C115.37 70.99 104.96 66.01 104.96 66.01C104.96 66.01 108.53 70.33 108.06 73.89C107.59 77.46 105.34 82.9 104.78 83.18C104.22 83.46 93.4199 76.42 93.4199 76.42L93.3199 41.05Z" fill="#8A5A54"/>
<path d="M19.46 44.8C19.46 44.8 13.36 31.1 13.73 30.72C14.11 30.34 27.06 37.67 27.06 37.67L19.46 44.8ZM32.41 33.63C32.41 33.63 32.5 17.02 33.07 16.74C33.63 16.46 44.24 29.6 44.24 29.6L32.41 33.63ZM49.87 28.38C49.87 28.38 55.69 12.99 56.25 12.99C56.81 12.99 63.57 30.54 63.57 30.54L49.87 28.38ZM65.92 28.85C65.92 28.85 74.74 15.8 75.59 15.99C76.44 16.18 77.94 32.98 77.94 32.98L65.92 28.85ZM78.78 32.69C78.78 32.69 91.73 23.59 92.29 23.87C92.85 24.15 91.35 41.61 91.35 41.61L78.78 32.69Z" fill="#CD7955"/>
<path d="M15.1401 66.29C15.1401 66.29 3.78005 74.46 3.88005 75.77C3.98005 77.08 19.0801 78.3 19.0801 78.3L15.1401 66.29ZM21.9001 83.66C21.9001 83.66 13.5501 94.73 14.0201 95.49C14.4901 96.24 29.5101 92.21 29.5101 92.21L21.9001 83.66ZM32.9801 95.58C32.9801 95.58 30.9201 111.91 31.8501 112.29C32.7801 112.67 44.2401 101.12 44.2401 101.12L32.9801 95.58ZM50.0601 101.77C50.0601 101.77 57.5701 116.79 58.1301 116.79C58.6901 116.79 63.2901 100.74 63.2901 100.74L50.0601 101.77ZM70.0501 99.33C70.0501 99.33 80.8401 108.72 81.8801 108.34C82.9101 107.96 81.0401 92.95 81.0401 92.95L70.0501 99.33ZM85.0601 91.26C85.0601 91.26 99.8901 96.42 100.36 95.86C100.83 95.3 92.6601 80.84 92.6601 80.84L85.0601 91.26ZM97.59 54.66C98.01 56.56 105.76 52.55 107.87 51.56C109.98 50.57 116.53 47.62 115.89 46.49C115.26 45.36 108.36 48.53 106.6 49.31C104.84 50.08 97.38 53.69 97.59 54.66ZM97.5001 57.19C97.4501 58.31 99.6101 59 107.64 58.57C115.67 58.14 119.4 56.76 119.32 55.64C119.25 54.51 110.24 54.98 107.28 55.19C104.32 55.4 97.5701 55.71 97.5001 57.19ZM99.3301 60.29C99.0501 60.9 104.96 63.36 109.11 64.56C113.26 65.76 116.52 66.93 116.88 65.87C117.23 64.81 113.9 63.43 109.82 62.09C106.43 60.98 99.8201 59.23 99.3301 60.29Z" fill="#BA8D72"/>
<path d="M15.99 67.3C15.99 67.3 14.44 66.53 14.23 65.12C14.02 63.71 14.16 58.15 15.71 52.8C17.26 47.45 20.71 42.31 20.71 42.31L18.11 35.83L23.95 38.36C23.95 38.36 27.4 35.33 29.79 34C32.18 32.66 35.07 31.33 35.07 31.33L35.42 23.4L40.21 29.36C40.21 29.36 43.24 28.52 47.04 28.23C50.84 27.95 53.66 27.67 53.66 27.67L56.45 20.49L58.8 27.81C58.8 27.81 61.33 27.74 64.43 27.95C67.53 28.16 69.87 28.47 69.87 28.47L73.62 22.65L74.7 29.78C74.7 29.78 77.05 30.62 79.02 31.47C80.99 32.32 83.64 33.79 83.64 33.79L89.2 29.43L88.43 36.82C88.43 36.82 99.06 42.17 101.45 56.18C103.84 70.19 98.68 74.83 98.68 74.83L15.99 67.3Z" fill="#F3A25C"/>
<path d="M37.72 54.45C24.85 58.43 14.35 65.64 14.35 65.64L15.12 69.09L9.34998 74.44L16.67 75.43C16.67 75.43 17.25 77.3 19.37 81.17C21.49 85.04 23.01 86.55 23.01 86.55L19.23 91.94L26.25 90.49C26.25 90.49 28.81 93.41 30.64 94.82C32.47 96.23 35.41 98.58 35.41 98.58L34.49 106.04L40.54 100.9C40.54 100.9 43.29 101.89 46.66 102.52C50.04 103.15 53.63 103.22 53.63 103.22L57.5 110.54L60.17 103.01C60.17 103.01 64.46 102.52 67 102.02C69.53 101.53 73.55 99.49 73.55 99.49L80.31 104.49L79.25 96.47C79.25 96.47 83.05 94.08 84.67 92.88C86.29 91.68 88.47 89.5 88.47 89.5L95.44 91.75L92.27 84.92C92.27 84.92 95.44 81.05 96.99 78.87C98.54 76.69 100.72 71.48 100.72 71.48C100.72 71.48 92.88 59.1 74.95 53.68C59.82 49.1 45.46 52.06 37.72 54.45Z" fill="url(#paint0_radial_35_50)"/>
<path d="M28.0901 78.59C29.0001 79.2 37.9401 69.02 37.9401 69.02C37.9401 69.02 37.4701 66.49 34.9401 65.27C32.4101 64.05 30.1501 65.08 30.1501 65.08C30.1501 65.08 27.2501 78.02 28.0901 78.59ZM50.9901 63.76C50.9901 63.76 52.9601 61.04 57.0001 61.32C61.0401 61.6 62.7301 63.57 62.7301 63.57C62.7301 63.57 58.6001 78.02 57.6601 78.02C56.7201 78.02 50.9901 63.76 50.9901 63.76ZM39.4501 92.95C40.2501 93.75 50.6201 84.03 50.6201 84.03C50.6201 84.03 49.4001 81.4 46.7701 79.62C44.1401 77.84 40.0101 78.96 40.0101 78.96C40.0101 78.96 38.7001 92.2 39.4501 92.95ZM64.1301 80.65C64.1301 80.65 64.8301 77.69 68.0701 76.61C71.7301 75.39 73.9801 77.08 73.9801 77.08C73.9801 77.08 74.5401 89.75 73.5101 90.31C72.4801 90.87 64.1301 80.65 64.1301 80.65ZM74.9301 67.61C74.9301 67.61 74.4601 64.61 76.8101 62.82C79.1601 61.03 81.6901 61.6 81.6901 61.6C81.6901 61.6 86.8501 73.52 86.1901 74.08C85.5301 74.65 74.9301 67.61 74.9301 67.61Z" fill="#FBFFFE"/>
<path d="M44.28 40.01C45.18 40.91 46.81 39.17 47.47 38.41C48.13 37.66 49.49 36.25 49.49 36.25L51.89 38C51.89 38 53.81 39.92 54.99 38.75C55.72 38.02 53.25 35.04 52.22 33.92C51.19 32.8 49.92 31.53 49.12 31.67C48.19 31.83 46.85 33.8 46.07 35.05C44.66 37.29 43.53 39.26 44.28 40.01ZM72.96 42.69C73.47 44.38 76.4 42.92 77.18 42.64C78.26 42.26 79.67 41.75 79.67 41.75C79.67 41.75 79.86 43.11 80 44.71C80.09 45.71 80.28 47.76 81.64 47.71C83.05 47.66 83.06 45.17 83 43.91C82.81 40.16 83 38.04 82.11 37.48C81.22 36.92 76.43 39.54 75.45 40.11C74.47 40.68 72.67 41.75 72.96 42.69Z" fill="#CD7955"/>
<path d="M30.86 38.75C26.21 40.49 25.04 44.57 25.65 47.15C26.26 49.73 28.79 53.67 35.83 52.45C42.18 51.35 42.55 45.22 41.13 42.22C39.54 38.84 35.56 36.99 30.86 38.75Z" fill="#FFDC1E"/>
<path d="M28.89 45.22C28.75 48.13 31.43 49.28 33.96 49.11C35.41 49.02 38.46 47.98 38.28 44.93C38.1 42.07 35.65 41.46 33.12 41.5C31.28 41.55 29.01 42.88 28.89 45.22Z" fill="#282F2F"/>
<path d="M23.17 53.01C23.34 48.7 20.17 45.92 15.71 46.67C11.39 47.4 12.25 52.61 12.38 53.19C12.57 54.03 13.04 55.16 13.04 55.16C13.04 55.16 12 55.83 12 57.89C12 59.95 12.78 61.94 16.5 61.41C20.45 60.85 23.03 56.49 23.17 53.01Z" fill="#FF6666"/>
<path d="M14.06 54.77C14.2 55.19 13.82 56.67 15.84 56.65C20.16 56.6 21.03 54.02 21.07 53.46C21.12 52.9 20.51 51.4 16.14 51.49C12.85 51.56 13.87 54.2 14.06 54.77Z" fill="#A82612"/>
<path d="M49.02 52.78C49.26 55.16 52.99 56.31 57.37 56.91C62.16 57.57 65.58 57.38 65.58 57.38C65.58 57.38 67.93 56.25 67.88 49.59C67.83 43.11 65.3 42.27 65.3 42.27C65.3 42.27 58.87 42.74 53.8 46.49C51 48.57 48.84 50.9 49.02 52.78Z" fill="#885B52"/>
<path d="M60.15 46.44C56.64 47.36 48.84 50.43 49.03 52.78C49.17 54.52 52.92 54.09 58.13 54.05C63.63 54 67.29 54.58 67.29 54.58C67.29 54.58 67.46 54.11 67.55 53.71C67.66 53.23 67.68 52.69 67.68 52.69C67.68 52.69 63.29 51.91 59.12 52.03C55.84 52.12 51.33 52.73 52.32 51.61C52.67 51.21 57.9 49.03 60.77 48.51C63.63 47.99 67.81 47.72 67.81 47.72C67.81 47.72 67.76 47.12 67.67 46.52C67.61 46.12 67.46 45.48 67.46 45.48C67.46 45.48 63.2 45.65 60.15 46.44Z" fill="#BA8D72"/>
<defs>
<radialGradient id="paint0_radial_35_50" cx="0" cy="0" r="1" gradientUnits="userSpaceOnUse" gradientTransform="translate(57.1869 49.682) rotate(90.4125) scale(52.1854 46.4032)">
<stop offset="0.622" stop-color="#F4D6B5"/>
<stop offset="0.744" stop-color="#F1D2B2"/>
<stop offset="0.873" stop-color="#E7C5AA"/>
<stop offset="1" stop-color="#D8B19C"/>
</radialGradient>
</defs>
</svg>
