<svg width="100" height="100" viewBox="0 0 100 100" fill="none" xmlns="http://www.w3.org/2000/svg">
<path d="M72.9062 32.0703C72.9062 32.0703 79.875 25.9141 80.0156 26.0547C80.1562 26.1953 82.875 29.9375 82.875 31.8437C82.875 34.2266 80.75 36.8281 80.75 36.8281C80.75 36.8281 89.7656 31.8437 90.2812 31.9922C90.7969 32.1406 96.5156 42.625 96.5156 43.3594C96.5156 44.0937 91.1641 55.1641 90.6484 55.3125C90.1328 55.4609 82 51.5703 82 51.5703C82 51.5703 84.7891 54.9453 84.4219 57.7266C84.0547 60.5156 82.2969 64.7656 81.8594 64.9844C81.4219 65.2031 72.9844 59.7031 72.9844 59.7031L72.9062 32.0703Z" fill="#8A5A54"/>
<path d="M15.2031 35C15.2031 35 10.4374 24.2969 10.7265 24C11.0234 23.7031 21.1406 29.4297 21.1406 29.4297L15.2031 35ZM25.3203 26.2734C25.3203 26.2734 25.3906 13.2969 25.8359 13.0781C26.2734 12.8594 34.5624 23.125 34.5624 23.125L25.3203 26.2734ZM38.9609 22.1719C38.9609 22.1719 43.5078 10.1484 43.9453 10.1484C44.3828 10.1484 49.664 23.8594 49.664 23.8594L38.9609 22.1719ZM51.4999 22.5391C51.4999 22.5391 58.3906 12.3438 59.0546 12.4922C59.7187 12.6406 60.8906 25.7656 60.8906 25.7656L51.4999 22.5391ZM61.5468 25.5391C61.5468 25.5391 71.664 18.4297 72.1015 18.6484C72.539 18.8672 71.3671 32.5078 71.3671 32.5078L61.5468 25.5391Z" fill="#CD7955"/>
<path d="M11.8281 51.7891C11.8281 51.7891 2.95315 58.1719 3.03127 59.1953C3.1094 60.2187 14.9063 61.1719 14.9063 61.1719L11.8281 51.7891ZM17.1094 65.3594C17.1094 65.3594 10.586 74.0078 10.9531 74.6016C11.3203 75.1875 23.0547 72.0391 23.0547 72.0391L17.1094 65.3594ZM25.7656 74.6719C25.7656 74.6719 24.1563 87.4297 24.8828 87.7266C25.6094 88.0234 34.5625 79 34.5625 79L25.7656 74.6719ZM39.1094 79.5078C39.1094 79.5078 44.9766 91.2422 45.4141 91.2422C45.8516 91.2422 49.4453 78.7031 49.4453 78.7031L39.1094 79.5078ZM54.7266 77.6016C54.7266 77.6016 63.1563 84.9375 63.9688 84.6406C64.7735 84.3437 63.3125 72.6172 63.3125 72.6172L54.7266 77.6016ZM66.4531 71.2969C66.4531 71.2969 78.0391 75.3281 78.4063 74.8906C78.7735 74.4531 72.3907 63.1562 72.3907 63.1562L66.4531 71.2969ZM76.2422 42.7031C76.5703 44.1875 82.625 41.0547 84.2735 40.2812C85.9219 39.5078 91.0391 37.2031 90.5391 36.3203C90.0469 35.4375 84.6563 37.9141 83.2813 38.5234C81.9063 39.125 76.0781 41.9453 76.2422 42.7031ZM76.1719 44.6797C76.1328 45.5547 77.8203 46.0937 84.0938 45.7578C90.3672 45.4219 93.2813 44.3437 93.2188 43.4687C93.1641 42.5859 86.125 42.9531 83.8125 43.1172C81.5 43.2812 76.2266 43.5234 76.1719 44.6797ZM77.6016 47.1016C77.3828 47.5781 82 49.5 85.2422 50.4375C88.4844 51.375 91.0313 52.2891 91.3125 51.4609C91.586 50.6328 88.9844 49.5547 85.7969 48.5078C83.1485 47.6406 77.9844 46.2734 77.6016 47.1016Z" fill="#BA8D72"/>
<path d="M12.4922 52.5781C12.4922 52.5781 11.2812 51.9766 11.1172 50.875C10.9531 49.7734 11.0625 45.4297 12.2734 41.25C13.4843 37.0703 16.1797 33.0547 16.1797 33.0547L14.1484 27.9922L18.7109 29.9688C18.7109 29.9688 21.4062 27.6016 23.2734 26.5625C25.1406 25.5156 27.3984 24.4766 27.3984 24.4766L27.6718 18.2812L31.414 22.9375C31.414 22.9375 33.7812 22.2812 36.75 22.0547C39.7187 21.8359 41.9218 21.6172 41.9218 21.6172L44.1015 16.0078L45.9375 21.7266C45.9375 21.7266 47.914 21.6719 50.3359 21.8359C52.7578 22 54.5859 22.2422 54.5859 22.2422L57.5156 17.6953L58.3593 23.2656C58.3593 23.2656 60.1953 23.9219 61.7343 24.5859C63.2734 25.25 65.3437 26.3984 65.3437 26.3984L69.6875 22.9922L69.0859 28.7656C69.0859 28.7656 77.3906 32.9453 79.2578 43.8906C81.125 54.8359 77.0937 58.4609 77.0937 58.4609L12.4922 52.5781Z" fill="#F3A25C"/>
<path d="M29.4688 42.5391C19.4141 45.6485 11.2109 51.2813 11.2109 51.2813L11.8125 53.9766L7.30469 58.1563L13.0234 58.9297C13.0234 58.9297 13.4766 60.3906 15.1328 63.4141C16.7891 66.4375 17.9766 67.6172 17.9766 67.6172L15.0234 71.8282L20.5078 70.6953C20.5078 70.6953 22.5078 72.9766 23.9375 74.0782C25.3672 75.1797 27.6641 77.0157 27.6641 77.0157L26.9453 82.8438L31.6719 78.8282C31.6719 78.8282 33.8203 79.6016 36.4531 80.0938C39.0937 80.586 41.8984 80.6407 41.8984 80.6407L44.9219 86.3594L47.0078 80.4766C47.0078 80.4766 50.3594 80.0938 52.3438 79.7031C54.3203 79.3203 57.4609 77.7266 57.4609 77.7266L62.7422 81.6328L61.9141 75.3672C61.9141 75.3672 64.8828 73.5 66.1484 72.5625C67.4141 71.625 69.1172 69.9219 69.1172 69.9219L74.5625 71.6797L72.0859 66.3438C72.0859 66.3438 74.5625 63.3203 75.7734 61.6172C76.9844 59.9141 78.6875 55.8438 78.6875 55.8438C78.6875 55.8438 72.5625 46.1719 58.5547 41.9375C46.7344 38.3594 35.5156 40.6719 29.4688 42.5391Z" fill="url(#paint0_radial_79_16)"/>
<path d="M21.9452 61.3984C22.6561 61.875 29.6405 53.9219 29.6405 53.9219C29.6405 53.9219 29.2733 51.9453 27.2968 50.9922C25.3202 50.0391 23.5546 50.8437 23.5546 50.8437C23.5546 50.8437 21.289 60.9531 21.9452 61.3984ZM39.8358 49.8125C39.8358 49.8125 41.3749 47.6875 44.5311 47.9062C47.6874 48.125 49.0077 49.6641 49.0077 49.6641C49.0077 49.6641 45.7811 60.9531 45.0468 60.9531C44.3124 60.9531 39.8358 49.8125 39.8358 49.8125ZM30.8202 72.6172C31.4452 73.2422 39.5468 65.6484 39.5468 65.6484C39.5468 65.6484 38.5936 63.5937 36.539 62.2031C34.4843 60.8125 31.2577 61.6875 31.2577 61.6875C31.2577 61.6875 30.2343 72.0312 30.8202 72.6172ZM50.1015 63.0078C50.1015 63.0078 50.6483 60.6953 53.1796 59.8516C56.039 58.8984 57.7968 60.2187 57.7968 60.2187C57.7968 60.2187 58.2343 70.1172 57.4296 70.5547C56.6249 70.9922 50.1015 63.0078 50.1015 63.0078ZM58.539 52.8203C58.539 52.8203 58.1718 50.4766 60.0077 49.0781C61.8436 47.6797 63.8202 48.125 63.8202 48.125C63.8202 48.125 67.8515 57.4375 67.3358 57.875C66.8202 58.3203 58.539 52.8203 58.539 52.8203Z" fill="#FBFFFE"/>
<path d="M34.5937 31.2578C35.2969 31.9609 36.5703 30.6016 37.0859 30.0078C37.6016 29.4219 38.6641 28.3203 38.6641 28.3203L40.5391 29.6875C40.5391 29.6875 42.0391 31.1875 42.9609 30.2734C43.5313 29.7031 41.6016 27.375 40.7969 26.5C39.9922 25.625 39 24.6328 38.375 24.7422C37.6484 24.8672 36.6016 26.4062 35.9922 27.3828C34.8906 29.1328 34.0078 30.6719 34.5937 31.2578ZM57 33.3516C57.3984 34.6719 59.6875 33.5312 60.2969 33.3125C61.1406 33.0156 62.2422 32.6172 62.2422 32.6172C62.2422 32.6172 62.3906 33.6797 62.5 34.9297C62.5703 35.7109 62.7187 37.3125 63.7812 37.2734C64.8828 37.2344 64.8906 35.2891 64.8437 34.3047C64.6953 31.375 64.8437 29.7187 64.1484 29.2812C63.4531 28.8437 59.7109 30.8906 58.9453 31.3359C58.1797 31.7813 56.7734 32.6172 57 33.3516Z" fill="#CD7955"/>
<path d="M23.1997 16.3449C15.2173 19.7997 13.2089 27.9005 14.256 33.0231C15.3032 38.1457 19.6463 45.9685 31.7314 43.5462C42.6321 41.3622 43.2672 29.1911 40.8296 23.2346C38.1001 16.5236 31.2679 12.8505 23.1997 16.3449Z" fill="#FFDC1E"/>
<path d="M25.0017 29.9758C24.957 30.7388 25.8121 31.0403 26.6193 30.9957C27.0819 30.9721 28.055 30.6995 27.9976 29.8998C27.9401 29.1499 27.1585 28.99 26.3513 29.0005C25.7642 29.0136 25.04 29.3623 25.0017 29.9758Z" fill="#282F2F"/>
<path d="M18.1016 41.4141C18.2344 38.0469 15.7578 35.875 12.2734 36.4609C8.89844 37.0312 9.57031 41.1016 9.67188 41.5547C9.82031 42.2109 10.1875 43.0937 10.1875 43.0937C10.1875 43.0937 9.375 43.6172 9.375 45.2266C9.375 46.8359 9.98438 48.3906 12.8906 47.9766C15.9766 47.5391 17.9922 44.1328 18.1016 41.4141Z" fill="#FF6666"/>
<path d="M10.9843 42.789C11.0937 43.1172 10.7968 44.2734 12.3749 44.2578C15.7499 44.2187 16.4296 42.2031 16.4609 41.7656C16.4999 41.3281 16.0234 40.1562 12.6093 40.2265C10.039 40.2812 10.8359 42.3437 10.9843 42.789Z" fill="#A82612"/>
<path d="M38.2968 41.2344C38.4843 43.0937 41.3983 43.9922 44.8202 44.4609C48.5624 44.9766 51.2343 44.8281 51.2343 44.8281C51.2343 44.8281 53.0702 43.9453 53.0311 38.7422C52.9921 33.6797 51.0155 33.0234 51.0155 33.0234C51.0155 33.0234 45.9921 33.3906 42.0311 36.3203C39.8436 37.9453 38.1561 39.7656 38.2968 41.2344Z" fill="#885B52"/>
<path d="M46.9922 36.2812C44.25 37 38.1562 39.3984 38.3047 41.2344C38.414 42.5937 41.3437 42.2578 45.414 42.2266C49.7109 42.1875 52.5703 42.6406 52.5703 42.6406C52.5703 42.6406 52.7031 42.2734 52.7734 41.9609C52.8594 41.5859 52.875 41.1641 52.875 41.1641C52.875 41.1641 49.4453 40.5547 46.1875 40.6484C43.625 40.7187 40.1015 41.1953 40.875 40.3203C41.1484 40.0078 45.2344 38.3047 47.4765 37.8984C49.7109 37.4922 52.9765 37.2813 52.9765 37.2813C52.9765 37.2813 52.9375 36.8125 52.8672 36.3438C52.8203 36.0313 52.7031 35.5312 52.7031 35.5312C52.7031 35.5312 49.375 35.6641 46.9922 36.2812Z" fill="#BA8D72"/>
<defs>
<radialGradient id="paint0_radial_79_16" cx="0" cy="0" r="1" gradientUnits="userSpaceOnUse" gradientTransform="translate(44.6773 38.8141) rotate(90.4125) scale(40.7698 36.2525)">
<stop offset="0.622" stop-color="#F4D6B5"/>
<stop offset="0.744" stop-color="#F1D2B2"/>
<stop offset="0.873" stop-color="#E7C5AA"/>
<stop offset="1" stop-color="#D8B19C"/>
</radialGradient>
</defs>
</svg>
