<svg width="78" height="58" viewBox="0 0 78 58" fill="none" xmlns="http://www.w3.org/2000/svg">
<path d="M21.1331 18.6008C21.1331 18.6008 15.6974 15.0302 15.5877 15.1117C15.4781 15.1933 13.3574 17.3638 13.3574 18.4694C13.3574 19.8514 15.0149 21.3603 15.0149 21.3603C15.0149 21.3603 7.98275 18.4694 7.58056 18.5555C7.17837 18.6416 2.71775 24.7225 2.71775 25.1484C2.71775 25.5744 6.89196 31.9952 7.29415 32.0813C7.69634 32.1674 14.0399 29.9108 14.0399 29.9108C14.0399 29.9108 11.8645 31.8683 12.1509 33.4814C12.4373 35.0991 13.8084 37.5641 14.1496 37.6909C14.4909 37.8178 21.0721 34.6278 21.0721 34.6278L21.1331 18.6008Z" fill="#8A5A54"/>
<path d="M68.5761 30.12C68.5761 30.12 69.4764 29.7232 69.5984 28.9967C69.7204 28.2702 69.639 25.4052 68.7387 22.6485C67.8385 19.8918 65.8346 17.2433 65.8346 17.2433L67.3448 13.9043L63.9527 15.2079C63.9527 15.2079 61.9488 13.6467 60.5607 12.9614C59.1725 12.2709 57.4939 11.5856 57.4939 11.5856L57.2906 7.49945L54.5084 10.5705C54.5084 10.5705 52.7485 10.1377 50.5413 9.98822C48.3342 9.84395 46.6963 9.69967 46.6963 9.69967L45.0757 6L43.7108 9.77181C43.7108 9.77181 42.2413 9.73574 40.4407 9.84395C38.6401 9.95215 37.281 10.1119 37.281 10.1119L35.1029 7.11299L34.4756 10.7869C34.4756 10.7869 33.1107 11.2197 31.9664 11.6577C30.8222 12.0957 29.283 12.8531 29.283 12.8531L26.0536 10.6066L26.5008 14.4144C26.5008 14.4144 20.3266 17.1711 18.9384 24.3901C17.5502 31.6091 20.5473 34 20.5473 34L68.5761 30.12Z" fill="#F3A25C"/>
<path d="M55.5437 24.0164C63.0091 25.2924 69.0997 27.6041 69.0997 27.6041L68.6531 28.7102L72 30.4256L67.754 30.743C67.754 30.743 67.4175 31.3425 66.1878 32.5834C64.9581 33.8242 64.0764 34.3083 64.0764 34.3083L66.269 36.0364L62.197 35.5715C62.197 35.5715 60.7121 36.5078 59.6505 36.9598C58.589 37.4119 56.8837 38.1654 56.8837 38.1654L57.4173 40.5572L53.908 38.9092C53.908 38.9092 52.3128 39.2266 50.358 39.4286C48.3974 39.6306 46.315 39.6531 46.315 39.6531L44.0702 42L42.5214 39.5857C42.5214 39.5857 40.0329 39.4286 38.5596 39.2683C37.092 39.1112 34.7602 38.4571 34.7602 38.4571L30.839 40.0602L31.4539 37.4889C31.4539 37.4889 29.2496 36.7226 28.3099 36.3378C27.3703 35.9531 26.1057 35.2541 26.1057 35.2541L22.0627 35.9755L23.9015 33.7857C23.9015 33.7857 22.0627 32.5449 21.1636 31.8459C20.2645 31.147 19 29.4765 19 29.4765C19 29.4765 23.5477 25.5072 33.9481 23.7695C42.7244 22.301 51.0541 23.2501 55.5437 24.0164Z" fill="url(#paint0_radial_79_2)"/>
<path d="M51.0169 18.1295C50.4685 18.5373 49.4752 17.7489 49.073 17.4045C48.6708 17.0647 47.8421 16.4258 47.8421 16.4258L46.3796 17.2187C46.3796 17.2187 45.2096 18.0887 44.4905 17.5586C44.0457 17.2278 45.5508 15.8775 46.1785 15.37C46.8061 14.8625 47.58 14.287 48.0675 14.3505C48.6343 14.423 49.4508 15.3156 49.9261 15.882C50.7854 16.897 51.474 17.7897 51.0169 18.1295ZM33.54 19.3439C33.2293 20.1097 31.4438 19.4481 30.9685 19.3212C30.3104 19.149 29.4511 18.918 29.4511 18.918C29.4511 18.918 29.3354 19.5342 29.25 20.2592C29.1952 20.7123 29.0794 21.6412 28.2507 21.6186C27.3915 21.5959 27.3854 20.4676 27.4219 19.8967C27.5377 18.1975 27.4219 17.2369 27.9643 16.9831C28.5066 16.7294 31.4255 17.9166 32.0227 18.1748C32.6199 18.4331 33.7168 18.918 33.54 19.3439Z" fill="#CD7955"/>
<path d="M59.1634 16.371C61.8106 17.3241 62.4767 19.5588 62.1295 20.9719C61.7822 22.385 60.3419 24.543 56.334 23.8748C52.719 23.2723 52.5084 19.9148 53.3168 18.2716C54.222 16.4203 56.4878 15.407 59.1634 16.371Z" fill="#FFDC1E"/>
<path d="M60.9961 19.9274C61.1003 22.2163 59.1052 23.1209 57.2217 22.9872C56.1423 22.9164 53.8717 22.0984 54.0057 19.6993C54.1397 17.4498 55.9636 16.97 57.8471 17.0014C59.2168 17.0407 60.9068 18.0869 60.9961 19.9274Z" fill="#282F2F"/>
<path d="M63.8808 24.0201C63.7772 22.0672 65.7089 20.8075 68.4267 21.1473C71.0592 21.4781 70.5352 23.8389 70.4559 24.1017C70.3402 24.4823 70.0538 24.9944 70.0538 24.9944C70.0538 24.9944 70.6875 25.298 70.6875 26.2314C70.6875 27.1648 70.2122 28.0666 67.9453 27.8264C65.5383 27.5726 63.9661 25.597 63.8808 24.0201Z" fill="#FF6666"/>
<path d="M69.4322 24.8177C69.3468 25.008 69.5784 25.6786 68.3475 25.6695C65.715 25.6469 65.1848 24.4778 65.1604 24.2241C65.13 23.9703 65.5017 23.2906 68.1647 23.3314C70.1695 23.3631 69.5479 24.5594 69.4322 24.8177Z" fill="#A82612"/>
<path d="M48.1284 23.9159C47.9821 24.9943 45.7092 25.5154 43.0401 25.7873C40.1212 26.0864 38.0371 26.0003 38.0371 26.0003C38.0371 26.0003 36.6051 25.4883 36.6356 22.4704C36.666 19.5342 38.2078 19.1536 38.2078 19.1536C38.2078 19.1536 42.126 19.3665 45.2156 21.0658C46.9218 22.0083 48.2381 23.064 48.1284 23.9159Z" fill="#885B52"/>
<path d="M41.3462 21.0432C43.4851 21.46 48.2382 22.8511 48.1224 23.916C48.0371 24.7044 45.752 24.5096 42.5771 24.4914C39.2256 24.4688 36.9952 24.7316 36.9952 24.7316C36.9952 24.7316 36.8916 24.5186 36.8368 24.3374C36.7698 24.1199 36.7576 23.8752 36.7576 23.8752C36.7576 23.8752 39.4327 23.5217 41.9738 23.5761C43.9726 23.6169 46.7209 23.8933 46.1176 23.3858C45.9043 23.2046 42.7173 22.2167 40.9684 21.9811C39.2256 21.7455 36.6784 21.6232 36.6784 21.6232C36.6784 21.6232 36.7088 21.3513 36.7637 21.0794C36.8002 20.8982 36.8917 20.6082 36.8917 20.6082C36.8917 20.6082 39.4876 20.6852 41.3462 21.0432Z" fill="#BA8D72"/>
<defs>
<radialGradient id="paint0_radial_79_2" cx="0" cy="0" r="1" gradientUnits="userSpaceOnUse" gradientTransform="translate(44.2518 22.4876) rotate(89.2537) scale(16.7327 26.915)">
<stop offset="0.622" stop-color="#F4D6B5"/>
<stop offset="0.744" stop-color="#F1D2B2"/>
<stop offset="0.873" stop-color="#E7C5AA"/>
<stop offset="1" stop-color="#D8B19C"/>
</radialGradient>
</defs>
</svg>
