<svg width="100" height="100" viewBox="0 0 100 100" fill="none" xmlns="http://www.w3.org/2000/svg">
<path d="M27.0938 32.0703C27.0938 32.0703 20.125 25.9141 19.9844 26.0547C19.8438 26.1953 17.125 29.9375 17.125 31.8437C17.125 34.2266 19.25 36.8281 19.25 36.8281C19.25 36.8281 10.2344 31.8437 9.71875 31.9922C9.20313 32.1406 3.48438 42.625 3.48438 43.3594C3.48438 44.0937 8.83594 55.1641 9.35156 55.3125C9.86719 55.4609 18 51.5703 18 51.5703C18 51.5703 15.2109 54.9453 15.5781 57.7266C15.9453 60.5156 17.7031 64.7656 18.1406 64.9844C18.5781 65.2031 27.0156 59.7031 27.0156 59.7031L27.0938 32.0703Z" fill="#8A5A54"/>
<path d="M84.7969 35C84.7969 35 89.5626 24.2969 89.2735 24C88.9766 23.7031 78.8594 29.4297 78.8594 29.4297L84.7969 35ZM74.6797 26.2734C74.6797 26.2734 74.6094 13.2969 74.1641 13.0781C73.7266 12.8594 65.4376 23.125 65.4376 23.125L74.6797 26.2734ZM61.0391 22.1719C61.0391 22.1719 56.4922 10.1484 56.0547 10.1484C55.6172 10.1484 50.336 23.8594 50.336 23.8594L61.0391 22.1719ZM48.5001 22.5391C48.5001 22.5391 41.6094 12.3438 40.9454 12.4922C40.2813 12.6406 39.1094 25.7656 39.1094 25.7656L48.5001 22.5391ZM38.4532 25.5391C38.4532 25.5391 28.336 18.4297 27.8985 18.6484C27.461 18.8672 28.6329 32.5078 28.6329 32.5078L38.4532 25.5391Z" fill="#CD7955"/>
<path d="M88.1719 51.7891C88.1719 51.7891 97.0469 58.1719 96.9687 59.1953C96.8906 60.2187 85.0937 61.1719 85.0937 61.1719L88.1719 51.7891ZM82.8906 65.3594C82.8906 65.3594 89.414 74.0078 89.0469 74.6016C88.6797 75.1875 76.9453 72.0391 76.9453 72.0391L82.8906 65.3594ZM74.2344 74.6719C74.2344 74.6719 75.8437 87.4297 75.1172 87.7266C74.3906 88.0234 65.4375 79 65.4375 79L74.2344 74.6719ZM60.8906 79.5078C60.8906 79.5078 55.0234 91.2422 54.5859 91.2422C54.1484 91.2422 50.5547 78.7031 50.5547 78.7031L60.8906 79.5078ZM45.2734 77.6016C45.2734 77.6016 36.8437 84.9375 36.0312 84.6406C35.2265 84.3437 36.6875 72.6172 36.6875 72.6172L45.2734 77.6016ZM33.5469 71.2969C33.5469 71.2969 21.9609 75.3281 21.5937 74.8906C21.2265 74.4531 27.6093 63.1562 27.6093 63.1562L33.5469 71.2969ZM23.7578 42.7031C23.4297 44.1875 17.375 41.0547 15.7265 40.2812C14.0781 39.5078 8.96091 37.2031 9.46091 36.3203C9.9531 35.4375 15.3437 37.9141 16.7187 38.5234C18.0937 39.125 23.9219 41.9453 23.7578 42.7031ZM23.8281 44.6797C23.8672 45.5547 22.1797 46.0937 15.9062 45.7578C9.63279 45.4219 6.71872 44.3437 6.78122 43.4687C6.83591 42.5859 13.875 42.9531 16.1875 43.1172C18.5 43.2812 23.7734 43.5234 23.8281 44.6797ZM22.3984 47.1016C22.6172 47.5781 18 49.5 14.7578 50.4375C11.5156 51.375 8.96873 52.2891 8.68748 51.4609C8.41404 50.6328 11.0156 49.5547 14.2031 48.5078C16.8515 47.6406 22.0156 46.2734 22.3984 47.1016Z" fill="#BA8D72"/>
<path d="M87.5076 52.5781C87.5076 52.5781 88.7185 51.9766 88.8826 50.875C89.0467 49.7734 88.9373 45.4297 87.7264 41.25C86.5154 37.0703 83.8201 33.0547 83.8201 33.0547L85.8513 27.9922L81.2888 29.9688C81.2888 29.9688 78.5935 27.6016 76.7263 26.5625C74.8592 25.5156 72.6014 24.4766 72.6014 24.4766L72.3279 18.2812L68.5857 22.9375C68.5857 22.9375 66.2185 22.2812 63.2498 22.0547C60.281 21.8359 58.0779 21.6172 58.0779 21.6172L55.8982 16.0078L54.0623 21.7266C54.0623 21.7266 52.0857 21.6719 49.6638 21.8359C47.242 22 45.4138 22.2422 45.4138 22.2422L42.4842 17.6953L41.6404 23.2656C41.6404 23.2656 39.8045 23.9219 38.2654 24.5859C36.7264 25.25 34.656 26.3984 34.656 26.3984L30.3123 22.9922L30.9139 28.7656C30.9139 28.7656 22.6092 32.9453 20.742 43.8906C18.8748 54.8359 22.906 58.4609 22.906 58.4609L87.5076 52.5781Z" fill="#F3A25C"/>
<path d="M70.5312 42.5391C80.5859 45.6485 88.7891 51.2813 88.7891 51.2813L88.1875 53.9766L92.6953 58.1563L86.9766 58.9297C86.9766 58.9297 86.5234 60.3906 84.8672 63.4141C83.2109 66.4375 82.0234 67.6172 82.0234 67.6172L84.9766 71.8282L79.4922 70.6953C79.4922 70.6953 77.4922 72.9766 76.0625 74.0782C74.6328 75.1797 72.3359 77.0157 72.3359 77.0157L73.0547 82.8438L68.3281 78.8282C68.3281 78.8282 66.1797 79.6016 63.5469 80.0938C60.9063 80.586 58.1016 80.6407 58.1016 80.6407L55.0781 86.3594L52.9922 80.4766C52.9922 80.4766 49.6406 80.0938 47.6562 79.7031C45.6797 79.3203 42.5391 77.7266 42.5391 77.7266L37.2578 81.6328L38.0859 75.3672C38.0859 75.3672 35.1172 73.5 33.8516 72.5625C32.5859 71.625 30.8828 69.9219 30.8828 69.9219L25.4375 71.6797L27.9141 66.3438C27.9141 66.3438 25.4375 63.3203 24.2266 61.6172C23.0156 59.9141 21.3125 55.8438 21.3125 55.8438C21.3125 55.8438 27.4375 46.1719 41.4453 41.9375C53.2656 38.3594 64.4844 40.6719 70.5312 42.5391Z" fill="url(#paint0_radial_79_16)"/>
<path d="M78.0545 61.3984C77.3436 61.875 70.3592 53.9219 70.3592 53.9219C70.3592 53.9219 70.7264 51.9453 72.703 50.9922C74.6796 50.0391 76.4452 50.8437 76.4452 50.8437C76.4452 50.8437 78.7108 60.9531 78.0545 61.3984ZM60.1639 49.8125C60.1639 49.8125 58.6249 47.6875 55.4686 47.9062C52.3124 48.125 50.9921 49.6641 50.9921 49.6641C50.9921 49.6641 54.2186 60.9531 54.953 60.9531C55.6874 60.9531 60.1639 49.8125 60.1639 49.8125ZM69.1795 72.6172C68.5545 73.2422 60.453 65.6484 60.453 65.6484C60.453 65.6484 61.4061 63.5937 63.4608 62.2031C65.5155 60.8125 68.7421 61.6875 68.7421 61.6875C68.7421 61.6875 69.7655 72.0312 69.1795 72.6172ZM49.8983 63.0078C49.8983 63.0078 49.3514 60.6953 46.8202 59.8516C43.9608 58.8984 42.203 60.2187 42.203 60.2187C42.203 60.2187 41.7655 70.1172 42.5702 70.5547C43.3749 70.9922 49.8983 63.0078 49.8983 63.0078ZM41.4608 52.8203C41.4608 52.8203 41.828 50.4766 39.9921 49.0781C38.1561 47.6797 36.1795 48.125 36.1795 48.125C36.1795 48.125 32.1483 57.4375 32.6639 57.875C33.1795 58.3203 41.4608 52.8203 41.4608 52.8203Z" fill="#FBFFFE"/>
<path d="M65.406 31.2578C64.7029 31.9609 63.4294 30.6016 62.9138 30.0078C62.3982 29.4219 61.3357 28.3203 61.3357 28.3203L59.4607 29.6875C59.4607 29.6875 57.9607 31.1875 57.0388 30.2734C56.4685 29.7031 58.3982 27.375 59.2029 26.5C60.0076 25.625 60.9998 24.6328 61.6248 24.7422C62.3513 24.8672 63.3982 26.4062 64.0076 27.3828C65.1091 29.1328 65.9919 30.6719 65.406 31.2578ZM42.9998 33.3516C42.6013 34.6719 40.3123 33.5312 39.7029 33.3125C38.8591 33.0156 37.7576 32.6172 37.7576 32.6172C37.7576 32.6172 37.6091 33.6797 37.4998 34.9297C37.4294 35.7109 37.281 37.3125 36.2185 37.2734C35.1169 37.2344 35.1091 35.2891 35.156 34.3047C35.3044 31.375 35.156 29.7187 35.8513 29.2812C36.5466 28.8437 40.2888 30.8906 41.0544 31.3359C41.8201 31.7813 43.2263 32.6172 42.9998 33.3516Z" fill="#CD7955"/>
<path d="M78.7717 22.0667C85.0435 24.8067 86.6216 31.2315 85.7988 35.2942C84.9761 39.3569 81.5637 45.5613 72.0682 43.6401C63.5034 41.9079 63.0043 32.255 64.9196 27.5309C67.0642 22.2084 72.4324 19.2952 78.7717 22.0667Z" fill="#FFDC1E"/>
<path d="M78.9972 34.9516C79.0716 36.4776 77.6466 37.0806 76.3012 36.9915C75.5302 36.9443 73.9083 36.3989 74.0041 34.7996C74.0998 33.2998 75.4026 32.98 76.7479 33.0009C77.7263 33.0272 78.9334 33.7246 78.9972 34.9516Z" fill="#282F2F"/>
<path d="M81.8984 41.4141C81.7656 38.0469 84.2422 35.875 87.7266 36.4609C91.1016 37.0312 90.4297 41.1016 90.3281 41.5547C90.1797 42.2109 89.8125 43.0937 89.8125 43.0937C89.8125 43.0937 90.625 43.6172 90.625 45.2266C90.625 46.8359 90.0156 48.3906 87.1094 47.9766C84.0234 47.5391 82.0078 44.1328 81.8984 41.4141Z" fill="#FF6666"/>
<path d="M89.0157 42.789C88.9063 43.1172 89.2032 44.2734 87.6251 44.2578C84.2501 44.2187 83.5704 42.2031 83.5391 41.7656C83.5001 41.3281 83.9766 40.1562 87.3907 40.2265C89.961 40.2812 89.1641 42.3437 89.0157 42.789Z" fill="#A82612"/>
<path d="M61.7032 41.2344C61.5157 43.0937 58.6017 43.9922 55.1798 44.4609C51.4376 44.9766 48.7657 44.8281 48.7657 44.8281C48.7657 44.8281 46.9298 43.9453 46.9689 38.7422C47.0079 33.6797 48.9845 33.0234 48.9845 33.0234C48.9845 33.0234 54.0079 33.3906 57.9689 36.3203C60.1564 37.9453 61.8439 39.7656 61.7032 41.2344Z" fill="#885B52"/>
<path d="M53.0076 36.2812C55.7498 37 61.8435 39.3984 61.6951 41.2344C61.5857 42.5937 58.656 42.2578 54.5857 42.2266C50.2888 42.1875 47.4295 42.6406 47.4295 42.6406C47.4295 42.6406 47.2966 42.2734 47.2263 41.9609C47.1404 41.5859 47.1248 41.1641 47.1248 41.1641C47.1248 41.1641 50.5545 40.5547 53.8123 40.6484C56.3748 40.7187 59.8982 41.1953 59.1248 40.3203C58.8513 40.0078 54.7654 38.3047 52.5232 37.8984C50.2888 37.4922 47.0232 37.2813 47.0232 37.2813C47.0232 37.2813 47.0623 36.8125 47.1326 36.3438C47.1795 36.0313 47.2967 35.5312 47.2967 35.5312C47.2967 35.5312 50.6248 35.6641 53.0076 36.2812Z" fill="#BA8D72"/>
<defs>
<radialGradient id="paint0_radial_79_16" cx="0" cy="0" r="1" gradientUnits="userSpaceOnUse" gradientTransform="translate(55.3227 38.8141) rotate(89.5875) scale(40.7698 36.2525)">
<stop offset="0.622" stop-color="#F4D6B5"/>
<stop offset="0.744" stop-color="#F1D2B2"/>
<stop offset="0.873" stop-color="#E7C5AA"/>
<stop offset="1" stop-color="#D8B19C"/>
</radialGradient>
</defs>
</svg>
