<svg width="78" height="58" viewBox="0 0 78 58" fill="none" xmlns="http://www.w3.org/2000/svg">
<path d="M56.8669 18.6008C56.8669 18.6008 62.3026 15.0302 62.4123 15.1117C62.5219 15.1933 64.6426 17.3638 64.6426 18.4694C64.6426 19.8514 62.9851 21.3603 62.9851 21.3603C62.9851 21.3603 70.0173 18.4694 70.4194 18.5555C70.8216 18.6416 75.2823 24.7225 75.2823 25.1484C75.2823 25.5744 71.108 31.9952 70.7058 32.0813C70.3037 32.1674 63.9601 29.9108 63.9601 29.9108C63.9601 29.9108 66.1355 31.8683 65.8491 33.4814C65.5627 35.0991 64.1916 37.5641 63.8504 37.6909C63.5091 37.8178 56.9279 34.6278 56.9279 34.6278L56.8669 18.6008Z" fill="#8A5A54"/>
<path d="M9.42388 30.12C9.42388 30.12 8.5236 29.7232 8.40162 28.9967C8.27965 28.2702 8.36097 25.4052 9.26125 22.6485C10.1615 19.8918 12.1654 17.2433 12.1654 17.2433L10.6552 13.9043L14.0473 15.2079C14.0473 15.2079 16.0512 13.6467 17.4393 12.9614C18.8275 12.2709 20.5061 11.5856 20.5061 11.5856L20.7094 7.49945L23.4916 10.5705C23.4916 10.5705 25.2515 10.1377 27.4587 9.98822C29.6658 9.84395 31.3037 9.69967 31.3037 9.69967L32.9243 6L34.2892 9.77181C34.2892 9.77181 35.7587 9.73574 37.5593 9.84395C39.3599 9.95215 40.719 10.1119 40.719 10.1119L42.8971 7.11299L43.5244 10.7869C43.5244 10.7869 44.8893 11.2197 46.0336 11.6577C47.1778 12.0957 48.717 12.8531 48.717 12.8531L51.9464 10.6066L51.4992 14.4144C51.4992 14.4144 57.6734 17.1711 59.0616 24.3901C60.4498 31.6091 57.4527 34 57.4527 34L9.42388 30.12Z" fill="#F3A25C"/>
<path d="M22.4563 24.0164C14.9909 25.2924 8.9003 27.6041 8.9003 27.6041L9.34694 28.7102L6 30.4256L10.246 30.743C10.246 30.743 10.5825 31.3425 11.8122 32.5834C13.0419 33.8242 13.9236 34.3083 13.9236 34.3083L11.731 36.0364L15.803 35.5715C15.803 35.5715 17.2879 36.5078 18.3495 36.9598C19.411 37.4119 21.1163 38.1654 21.1163 38.1654L20.5827 40.5572L24.092 38.9092C24.092 38.9092 25.6872 39.2266 27.642 39.4286C29.6026 39.6306 31.685 39.6531 31.685 39.6531L33.9298 42L35.4786 39.5857C35.4786 39.5857 37.9671 39.4286 39.4404 39.2683C40.908 39.1112 43.2398 38.4571 43.2398 38.4571L47.161 40.0602L46.5461 37.4889C46.5461 37.4889 48.7504 36.7226 49.6901 36.3378C50.6297 35.9531 51.8943 35.2541 51.8943 35.2541L55.9373 35.9755L54.0985 33.7857C54.0985 33.7857 55.9373 32.5449 56.8364 31.8459C57.7355 31.147 59 29.4765 59 29.4765C59 29.4765 54.4523 25.5072 44.0519 23.7695C35.2756 22.301 26.9459 23.2501 22.4563 24.0164Z" fill="url(#paint0_radial_79_2)"/>
<path d="M26.9831 18.1295C27.5315 18.5373 28.5248 17.7489 28.927 17.4045C29.3292 17.0647 30.1579 16.4258 30.1579 16.4258L31.6204 17.2187C31.6204 17.2187 32.7904 18.0887 33.5095 17.5586C33.9543 17.2278 32.4492 15.8775 31.8215 15.37C31.1939 14.8625 30.42 14.287 29.9325 14.3505C29.3657 14.423 28.5492 15.3156 28.0739 15.882C27.2146 16.897 26.526 17.7897 26.9831 18.1295ZM44.46 19.3439C44.7707 20.1097 46.5562 19.4481 47.0315 19.3212C47.6896 19.149 48.5489 18.918 48.5489 18.918C48.5489 18.918 48.6646 19.5342 48.75 20.2592C48.8048 20.7123 48.9206 21.6412 49.7493 21.6186C50.6085 21.5959 50.6146 20.4676 50.5781 19.8967C50.4623 18.1975 50.5781 17.2369 50.0357 16.9831C49.4934 16.7294 46.5745 17.9166 45.9773 18.1748C45.3801 18.4331 44.2832 18.918 44.46 19.3439Z" fill="#CD7955"/>
<path d="M18.8366 16.371C16.1894 17.3241 15.5233 19.5588 15.8705 20.9719C16.2178 22.385 17.6581 24.543 21.666 23.8748C25.281 23.2723 25.4916 19.9148 24.6832 18.2716C23.778 16.4203 21.5122 15.407 18.8366 16.371Z" fill="#FFDC1E"/>
<path d="M17.0039 19.9274C16.8997 22.2163 18.8948 23.1209 20.7783 22.9872C21.8577 22.9164 24.1283 22.0984 23.9943 19.6993C23.8603 17.4498 22.0364 16.97 20.1529 17.0014C18.7832 17.0407 17.0932 18.0869 17.0039 19.9274Z" fill="#282F2F"/>
<path d="M14.1192 24.0201C14.2228 22.0672 12.2911 20.8075 9.57328 21.1473C6.94078 21.4781 7.46484 23.8389 7.54406 24.1017C7.65984 24.4823 7.94625 24.9944 7.94625 24.9944C7.94625 24.9944 7.3125 25.298 7.3125 26.2314C7.3125 27.1648 7.78781 28.0666 10.0547 27.8264C12.4617 27.5726 14.0339 25.597 14.1192 24.0201Z" fill="#FF6666"/>
<path d="M8.56785 24.8177C8.65316 25.008 8.4216 25.6786 9.65254 25.6695C12.285 25.6469 12.8152 24.4778 12.8396 24.2241C12.87 23.9703 12.4983 23.2906 9.83535 23.3314C7.8305 23.3631 8.45207 24.5594 8.56785 24.8177Z" fill="#A82612"/>
<path d="M29.8716 23.9159C30.0179 24.9943 32.2908 25.5154 34.9599 25.7873C37.8788 26.0864 39.9629 26.0003 39.9629 26.0003C39.9629 26.0003 41.3949 25.4883 41.3644 22.4704C41.334 19.5342 39.7922 19.1536 39.7922 19.1536C39.7922 19.1536 35.874 19.3665 32.7844 21.0658C31.0782 22.0083 29.7619 23.064 29.8716 23.9159Z" fill="#885B52"/>
<path d="M36.6538 21.0432C34.5149 21.46 29.7618 22.8511 29.8776 23.916C29.9629 24.7044 32.248 24.5096 35.4229 24.4914C38.7744 24.4688 41.0048 24.7316 41.0048 24.7316C41.0048 24.7316 41.1084 24.5186 41.1632 24.3374C41.2302 24.1199 41.2424 23.8752 41.2424 23.8752C41.2424 23.8752 38.5673 23.5217 36.0262 23.5761C34.0274 23.6169 31.2791 23.8933 31.8824 23.3858C32.0957 23.2046 35.2827 22.2167 37.0316 21.9811C38.7744 21.7455 41.3216 21.6232 41.3216 21.6232C41.3216 21.6232 41.2912 21.3513 41.2363 21.0794C41.1998 20.8982 41.1083 20.6082 41.1083 20.6082C41.1083 20.6082 38.5124 20.6852 36.6538 21.0432Z" fill="#BA8D72"/>
<defs>
<radialGradient id="paint0_radial_79_2" cx="0" cy="0" r="1" gradientUnits="userSpaceOnUse" gradientTransform="translate(33.7482 22.4876) rotate(90.7463) scale(16.7327 26.915)">
<stop offset="0.622" stop-color="#F4D6B5"/>
<stop offset="0.744" stop-color="#F1D2B2"/>
<stop offset="0.873" stop-color="#E7C5AA"/>
<stop offset="1" stop-color="#D8B19C"/>
</radialGradient>
</defs>
</svg>
