<svg width="101" height="100" viewBox="0 0 101 100" fill="none" xmlns="http://www.w3.org/2000/svg">
<path d="M70.0331 10.9375C44.8768 17.6563 38.4706 39.8438 38.4706 39.8438L64.0956 45.1562C61.9081 34.8437 70.0331 10.9375 70.0331 10.9375Z" fill="#B2C1C0"/>
<path d="M44.5643 33.2812L65.0331 30.4687C65.0331 30.4687 65.3456 28.75 65.6581 27.5C51.9081 27.6563 44.5643 33.2812 44.5643 33.2812Z" fill="#879191"/>
<path d="M83.0018 14.6875C83.0018 14.6875 87.6893 19.375 88.9393 23.9063C96.2831 28.9063 96.9081 36.25 96.9081 41.0937C96.9081 58.125 70.0331 74.5313 70.0331 74.5313L3.15808 60.1563C3.15808 53.4375 33.1581 30.4688 64.0956 30.4688C74.8768 30.4688 89.0956 38.125 92.3768 34.5313C94.2518 32.5 90.3456 26.25 88.4706 26.25C88.4706 26.25 88.6268 30.3125 86.5956 32.8125C87.3768 23.5938 83.0018 14.6875 83.0018 14.6875Z" fill="#B2C1C0"/>
<path d="M30.8143 86.25C30.8143 86.25 30.8143 59.6875 56.7518 49.0625C56.7518 49.0625 71.5956 79.0625 30.8143 86.25Z" fill="#FF717F"/>
<path d="M39.8768 59.8437C39.8768 59.8437 34.4081 75.625 34.2518 82.5C34.2518 82.5 60.0331 74.5312 53.7831 50.3125L39.8768 59.8437Z" fill="#ED4C5C"/>
<path opacity="0.5" d="M46.2831 55.4687C46.2831 55.4687 40.8144 64.8437 39.8769 73.4375C38.9394 82.0312 53.1581 69.0625 54.4081 52.1875L46.2831 55.4687Z" fill="#3E4347"/>
<path d="M24.8768 75.3125L30.0331 78.5937L29.0956 72.5L33.7831 75.9375L32.8456 69.6875L38.3143 73.75L36.4393 66.0937L42.3768 71.0937L40.8143 62.8125L46.9081 67.8125L44.8768 59.6875L50.6581 63.75L48.7831 56.25L54.0956 61.4062L52.3768 52.9688C52.3768 52.9688 39.2518 61.25 24.8768 75.3125Z" fill="white"/>
<path d="M30.0331 78.5937L24.8768 75.3125L26.7518 73.5937L30.0331 78.5937ZM28.9393 72.5L33.6268 75.9375L30.5018 70L28.9393 72.5ZM32.6893 69.6875L38.1581 73.75L34.2518 66.7188L32.6893 69.6875ZM36.4393 66.0937L42.3768 71.0937L38.4706 63.9063L36.4393 66.0937ZM40.6581 62.8125L46.7518 67.8125L42.3768 60L40.6581 62.8125ZM44.7206 59.6875L50.5018 63.75L46.2831 57.1875L44.7206 59.6875ZM48.7831 56.25L54.0956 61.4062L50.5018 54.2188L48.7831 56.25Z" fill="#B2C1C0"/>
<path d="M55.3456 63.9062L51.9081 62.3438L53.9393 68.2812C54.7206 66.5625 55.1893 65 55.3456 63.9062ZM53.6268 68.9062L48.6268 66.875L50.8143 73.125C52.0643 71.5625 52.8456 70.1562 53.6268 68.9062ZM50.1893 73.75L45.1893 70.9375L46.5956 77.0312C47.8456 75.9375 49.0956 74.8437 50.1893 73.75ZM45.9706 77.5L40.8143 73.9062L42.0643 80C43.6268 79.2187 44.8768 78.4375 45.9706 77.5ZM41.5956 80.4687L36.2831 76.4062C36.2831 76.4062 37.0643 81.4062 37.2206 82.6562C38.9393 82.0312 40.3456 81.25 41.5956 80.4687Z" fill="white"/>
<path d="M37.5331 82.6563L32.0643 78.2812C32.3768 80.7813 33.1581 84.5312 33.1581 84.5312C34.7206 83.9062 36.1268 83.2813 37.5331 82.6563Z" fill="white"/>
<path d="M54.7206 66.25L51.7518 62.1875L53.7831 68.125C54.2518 67.6562 54.5643 66.875 54.7206 66.25ZM52.0643 71.25L48.6268 66.7188L50.8143 72.9688C51.2831 72.5 51.7518 71.875 52.0643 71.25ZM48.1581 75.7813L45.0331 70.9375L46.4393 77.0312C47.0643 76.7187 47.6893 76.25 48.1581 75.7813ZM43.9393 78.9063L40.8143 73.9062L42.0643 80C42.8456 79.6875 43.4706 79.375 43.9393 78.9063ZM39.2518 81.875L36.4393 76.5625L37.3768 82.9687C38.0018 82.5 38.6268 82.1875 39.2518 81.875ZM34.8768 83.9063L32.2206 78.2812L33.3143 84.5312C33.7831 84.375 34.2518 84.0625 34.8768 83.9063ZM24.5643 75.9375C24.5643 75.9375 61.4393 51.4062 58.6268 47.3438L37.5331 55.7813L24.5643 75.9375Z" fill="#B2C1C0"/>
<path d="M38.6268 51.4063C41.4746 51.4063 43.7831 49.0977 43.7831 46.25C43.7831 43.4023 41.4746 41.0938 38.6268 41.0938C35.7791 41.0938 33.4706 43.4023 33.4706 46.25C33.4706 49.0977 35.7791 51.4063 38.6268 51.4063Z" fill="#3E4347"/>
<path d="M24.8768 50.1563C24.8768 50.1563 31.1268 51.4063 34.2518 46.25C37.3768 41.0938 41.7518 40.7813 47.6893 40.4688C47.6893 40.4688 38.1581 38.125 33.4706 41.7188C28.7831 45.3125 29.0956 49.0625 24.8768 50.1563Z" fill="#76807F"/>
<path opacity="0.5" d="M68.7831 44.6875C68.7831 44.6875 70.9706 43.2813 71.2831 41.7188C71.7518 40 73.1581 36.7187 71.1268 34.8438C71.1268 34.8438 73.9393 36.4063 72.8456 40.4688C71.9081 44.375 70.5018 44.375 68.7831 44.6875ZM71.4393 45.9375C71.4393 45.9375 73.6268 44.8438 74.2518 43.125C74.8768 41.5625 76.4393 38.2813 74.7206 36.25C74.7206 36.25 77.3768 37.9687 75.9706 41.875C74.5643 45.9375 73.1581 45.7812 71.4393 45.9375ZM74.8768 47.1875C74.8768 47.1875 77.0643 45.9375 77.5331 44.375C78.0018 42.8125 79.7206 39.5313 77.6893 37.5C77.6893 37.5 80.3456 39.2188 79.0956 43.125C78.0018 47.0313 76.5956 47.0313 74.8768 47.1875Z" fill="#3E4347"/>
<path d="M80.1893 59.8437C80.1893 59.8437 86.2831 58.5937 87.6893 59.8437L85.3456 62.1875L80.1893 59.8437Z" fill="#879191"/>
<path d="M80.1893 59.8438C93.4706 59.8438 96.9081 89.0625 96.9081 89.0625C96.9081 89.0625 84.2518 71.875 68.1581 71.875L80.1893 59.8438Z" fill="#B2C1C0"/>
<path d="M3.15808 60.1562C3.15808 58.4375 21.7518 55.4687 34.8768 59.8437C48.0018 64.2187 51.4393 40.4687 58.0018 42.3437C65.1893 44.375 59.5643 66.7187 74.2518 72.6562C60.6581 84.8437 40.5018 92.3438 30.9706 86.25C68.3143 73.9062 57.3768 51.25 57.3768 51.25C57.3768 51.25 41.5956 70.3125 24.8768 76.0937C18.7831 78.2812 3.15808 65.625 3.15808 60.1562Z" fill="#E8E8E8"/>
<path d="M23.3143 61.7188C23.3143 61.7188 25.8143 60.1563 28.0018 61.7188C28.9393 62.3438 27.8456 63.75 25.9706 63.75C24.2518 63.5938 24.8768 62.1875 23.3143 61.7188Z" fill="#3E4347"/>
</svg>
