<svg width="101" height="100" viewBox="0 0 101 100" fill="none" xmlns="http://www.w3.org/2000/svg">
<path d="M30.0331 10.9375C55.1893 17.6563 61.5956 39.8438 61.5956 39.8438L35.9706 45.1562C38.1581 34.8437 30.0331 10.9375 30.0331 10.9375Z" fill="#B2C1C0"/>
<path d="M55.5018 33.2812L35.0331 30.4687C35.0331 30.4687 34.7206 28.75 34.4081 27.5C48.1581 27.6563 55.5018 33.2812 55.5018 33.2812Z" fill="#879191"/>
<path d="M17.0643 14.6875C17.0643 14.6875 12.3768 19.375 11.1268 23.9063C3.78308 28.9063 3.15808 36.25 3.15808 41.0937C3.15808 58.125 30.0331 74.5313 30.0331 74.5313L96.9081 60.1563C96.9081 53.4375 66.9081 30.4688 35.9706 30.4688C25.1893 30.4688 10.9706 38.125 7.68933 34.5313C5.81433 32.5 9.72058 26.25 11.5956 26.25C11.5956 26.25 11.4393 30.3125 13.4706 32.8125C12.6893 23.5938 17.0643 14.6875 17.0643 14.6875Z" fill="#B2C1C0"/>
<path d="M69.2518 86.25C69.2518 86.25 69.2518 59.6875 43.3143 49.0625C43.3143 49.0625 28.4706 79.0625 69.2518 86.25Z" fill="#FF717F"/>
<path d="M60.1893 59.8437C60.1893 59.8437 65.6581 75.625 65.8143 82.5C65.8143 82.5 40.0331 74.5312 46.2831 50.3125L60.1893 59.8437Z" fill="#ED4C5C"/>
<path opacity="0.5" d="M53.783 55.4687C53.783 55.4687 59.2518 64.8437 60.1893 73.4375C61.1268 82.0312 46.908 69.0625 45.658 52.1875L53.783 55.4687Z" fill="#3E4347"/>
<path d="M75.1893 75.3125L70.0331 78.5937L70.9706 72.5L66.2831 75.9375L67.2206 69.6875L61.7518 73.75L63.6268 66.0937L57.6893 71.0937L59.2518 62.8125L53.1581 67.8125L55.1893 59.6875L49.4081 63.75L51.2831 56.25L45.9706 61.4062L47.6893 52.9688C47.6893 52.9688 60.8143 61.25 75.1893 75.3125Z" fill="white"/>
<path d="M70.0331 78.5937L75.1893 75.3125L73.3143 73.5937L70.0331 78.5937ZM71.1268 72.5L66.4393 75.9375L69.5643 70L71.1268 72.5ZM67.3768 69.6875L61.9081 73.75L65.8143 66.7188L67.3768 69.6875ZM63.6268 66.0937L57.6893 71.0937L61.5956 63.9063L63.6268 66.0937ZM59.4081 62.8125L53.3143 67.8125L57.6893 60L59.4081 62.8125ZM55.3456 59.6875L49.5643 63.75L53.7831 57.1875L55.3456 59.6875ZM51.2831 56.25L45.9706 61.4062L49.5643 54.2188L51.2831 56.25Z" fill="#B2C1C0"/>
<path d="M44.7206 63.9062L48.1581 62.3438L46.1268 68.2812C45.3456 66.5625 44.8768 65 44.7206 63.9062ZM46.4393 68.9062L51.4393 66.875L49.2518 73.125C48.0018 71.5625 47.2206 70.1562 46.4393 68.9062ZM49.8768 73.75L54.8768 70.9375L53.4706 77.0312C52.2206 75.9375 50.9706 74.8437 49.8768 73.75ZM54.0956 77.5L59.2518 73.9062L58.0018 80C56.4393 79.2187 55.1893 78.4375 54.0956 77.5ZM58.4706 80.4687L63.7831 76.4062C63.7831 76.4062 63.0018 81.4062 62.8456 82.6562C61.1268 82.0312 59.7206 81.25 58.4706 80.4687Z" fill="white"/>
<path d="M62.5331 82.6563L68.0018 78.2812C67.6893 80.7813 66.9081 84.5312 66.9081 84.5312C65.3456 83.9062 63.9393 83.2813 62.5331 82.6563Z" fill="white"/>
<path d="M45.3456 66.25L48.3143 62.1875L46.2831 68.125C45.8143 67.6562 45.5018 66.875 45.3456 66.25ZM48.0018 71.25L51.4393 66.7188L49.2518 72.9688C48.7831 72.5 48.3143 71.875 48.0018 71.25ZM51.9081 75.7813L55.0331 70.9375L53.6268 77.0312C53.0018 76.7187 52.3768 76.25 51.9081 75.7813ZM56.1268 78.9063L59.2518 73.9062L58.0018 80C57.2206 79.6875 56.5956 79.375 56.1268 78.9063ZM60.8143 81.875L63.6268 76.5625L62.6893 82.9687C62.0643 82.5 61.4393 82.1875 60.8143 81.875ZM65.1893 83.9063L67.8456 78.2812L66.7518 84.5312C66.2831 84.375 65.8143 84.0625 65.1893 83.9063ZM75.5018 75.9375C75.5018 75.9375 38.6268 51.4062 41.4393 47.3438L62.5331 55.7813L75.5018 75.9375Z" fill="#B2C1C0"/>
<path d="M61.4393 51.4063C58.5916 51.4063 56.2831 49.0977 56.2831 46.25C56.2831 43.4023 58.5916 41.0938 61.4393 41.0938C64.287 41.0938 66.5956 43.4023 66.5956 46.25C66.5956 49.0977 64.287 51.4063 61.4393 51.4063Z" fill="#3E4347"/>
<path d="M75.1893 50.1563C75.1893 50.1563 68.9393 51.4063 65.8143 46.25C62.6893 41.0938 58.3143 40.7813 52.3768 40.4688C52.3768 40.4688 61.9081 38.125 66.5956 41.7188C71.2831 45.3125 70.9706 49.0625 75.1893 50.1563Z" fill="#76807F"/>
<path opacity="0.5" d="M31.2831 44.6875C31.2831 44.6875 29.0956 43.2813 28.7831 41.7188C28.3143 40 26.9081 36.7187 28.9393 34.8438C28.9393 34.8438 26.1268 36.4063 27.2206 40.4688C28.1581 44.375 29.5643 44.375 31.2831 44.6875ZM28.6268 45.9375C28.6268 45.9375 26.4393 44.8438 25.8143 43.125C25.1893 41.5625 23.6268 38.2813 25.3456 36.25C25.3456 36.25 22.6893 37.9687 24.0956 41.875C25.5018 45.9375 26.9081 45.7812 28.6268 45.9375ZM25.1893 47.1875C25.1893 47.1875 23.0018 45.9375 22.5331 44.375C22.0643 42.8125 20.3456 39.5313 22.3768 37.5C22.3768 37.5 19.7206 39.2188 20.9706 43.125C22.0643 47.0313 23.4706 47.0313 25.1893 47.1875Z" fill="#3E4347"/>
<path d="M19.8768 59.8437C19.8768 59.8437 13.7831 58.5937 12.3768 59.8437L14.7206 62.1875L19.8768 59.8437Z" fill="#879191"/>
<path d="M19.8768 59.8438C6.59558 59.8438 3.15808 89.0625 3.15808 89.0625C3.15808 89.0625 15.8143 71.875 31.9081 71.875L19.8768 59.8438Z" fill="#B2C1C0"/>
<path d="M96.9081 60.1562C96.9081 58.4375 78.3143 55.4687 65.1893 59.8437C52.0643 64.2187 48.6268 40.4687 42.0643 42.3437C34.8768 44.375 40.5018 66.7187 25.8143 72.6562C39.4081 84.8437 59.5643 92.3438 69.0956 86.25C31.7518 73.9062 42.6893 51.25 42.6893 51.25C42.6893 51.25 58.4706 70.3125 75.1893 76.0937C81.2831 78.2812 96.9081 65.625 96.9081 60.1562Z" fill="#E8E8E8"/>
<path d="M76.7518 61.7188C76.7518 61.7188 74.2518 60.1563 72.0643 61.7188C71.1268 62.3438 72.2206 63.75 74.0956 63.75C75.8143 63.5938 75.1893 62.1875 76.7518 61.7188Z" fill="#3E4347"/>
</svg>
